<svg width="23" height="26" viewBox="0 0 23 26" fill="none" xmlns="http://www.w3.org/2000/svg">
<path fill-rule="evenodd" clip-rule="evenodd" d="M11.9568 2.81406C11.9704 2.9769 12.1068 3.10001 12.2673 3.10001C12.276 3.10001 12.2849 3.09959 12.2937 3.09876C12.4654 3.08441 12.5929 2.93364 12.5784 2.76186L12.3897 0.513576C12.3754 0.342007 12.2239 0.212447 12.0528 0.228876C11.881 0.243434 11.7536 0.394206 11.768 0.565983L11.9568 2.81406ZM9.75463 3.63405C9.62555 3.63405 9.50483 3.55336 9.46008 3.42463L8.71807 1.29385C8.66137 1.13122 8.7473 0.953408 8.91012 0.896843C9.07275 0.839861 9.25072 0.926165 9.30718 1.08879L10.0492 3.21937C10.1059 3.382 10.02 3.5598 9.85716 3.61658C9.82328 3.62843 9.78868 3.63405 9.75463 3.63405ZM7.1936 4.63706C7.25364 4.72753 7.35267 4.7764 7.45372 4.7764C7.51303 4.7764 7.57298 4.75955 7.62601 4.72441C7.76957 4.62895 7.80865 4.43534 7.71328 4.29184L6.46477 2.4127C6.36932 2.2692 6.17581 2.23011 6.03236 2.32535C5.8888 2.42081 5.84972 2.61442 5.94509 2.75791L7.1936 4.63706ZM5.50854 6.45507C5.43413 6.45507 5.35956 6.42866 5.29985 6.375L3.62332 4.86519C3.49529 4.74998 3.48496 4.55263 3.60023 4.42473C3.71575 4.29683 3.91276 4.28643 4.04086 4.40164L5.7174 5.91125C5.84533 6.02646 5.85573 6.22381 5.74046 6.35192C5.67882 6.42013 5.59385 6.45507 5.50854 6.45507ZM3.89772 8.5295C3.94387 8.55362 3.99334 8.56506 4.04192 8.56506C4.15435 8.56506 4.26305 8.50392 4.3186 8.39744C4.39845 8.2448 4.33948 8.05639 4.18677 7.97653L2.18731 6.93131C2.03467 6.85103 1.84613 6.91051 1.76644 7.06315C1.68666 7.2158 1.74564 7.40421 1.89835 7.48407L3.89772 8.5295ZM3.14718 10.9726C3.12355 10.9726 3.09958 10.9699 3.07578 10.9643L0.879262 10.4492C0.711498 10.4099 0.607351 10.2421 0.646677 10.0744C0.686002 9.90662 0.855118 9.80243 1.02157 9.84174L3.21809 10.3569C3.38586 10.3964 3.48992 10.5642 3.45059 10.7318C3.41697 10.8757 3.28878 10.9726 3.14718 10.9726ZM0.31086 13.2694C0.314416 13.4395 0.453335 13.5749 0.622637 13.5749C0.624738 13.5749 0.627026 13.5749 0.629209 13.5747L2.88488 13.5275C3.05717 13.5239 3.1938 13.3815 3.19017 13.2091C3.18667 13.0369 3.04817 12.8938 2.87188 12.9038L0.616212 12.951C0.443914 12.9545 0.307283 13.0972 0.31086 13.2694ZM1.08055 16.6758C0.944171 16.6758 0.818811 16.5856 0.780317 16.4477C0.734004 16.2817 0.830998 16.1097 0.996973 16.0634L3.17002 15.4565C3.33541 15.4099 3.50796 15.5073 3.55433 15.6732C3.60064 15.8392 3.50365 16.0112 3.33768 16.0575L1.16463 16.6644C1.13668 16.6721 1.10842 16.6758 1.08055 16.6758ZM2.29568 19.5661C2.18779 19.5661 2.08299 19.5101 2.02524 19.4101C1.93906 19.2608 1.99022 19.0701 2.13937 18.984L4.09318 17.856C4.24273 17.7699 4.43314 17.8208 4.51934 17.97C4.60552 18.1193 4.55434 18.31 4.40513 18.3961L2.45132 19.5243C2.40218 19.5525 2.34856 19.5661 2.29568 19.5661ZM12.6015 25.8072C12.5971 25.8072 12.5927 25.807 12.5881 25.8068C12.4162 25.7998 12.2824 25.6544 12.2897 25.4822L12.3841 23.2281C12.3914 23.0559 12.5339 22.9205 12.709 22.9295C12.881 22.9367 13.0147 23.0821 13.0074 23.2543L12.913 25.5084C12.9059 25.676 12.7678 25.8072 12.6015 25.8072ZM9.42035 25.2711C9.4504 25.2801 9.48079 25.2844 9.51061 25.2844C9.64456 25.2844 9.76844 25.1975 9.80914 25.0625L10.4611 22.9028C10.5109 22.7379 10.4176 22.5636 10.2527 22.5139C10.0877 22.4642 9.9136 22.5574 9.8639 22.7225L9.21181 24.8822C9.16211 25.0471 9.25544 25.2214 9.42035 25.2711ZM6.64673 24.0096C6.59172 24.0096 6.53591 23.9951 6.48548 23.9645C6.33803 23.8753 6.29091 23.6835 6.38018 23.5361L7.54885 21.6062C7.63819 21.459 7.82991 21.4117 7.97727 21.501C8.12472 21.5902 8.17184 21.7821 8.08257 21.9294L6.9139 23.8593C6.85525 23.9562 6.75225 24.0096 6.64673 24.0096ZM3.96751 21.9691C4.02867 22.0315 4.10951 22.0629 4.1904 22.0629C4.2692 22.0629 4.348 22.0331 4.40862 21.9737L6.02048 20.3952C6.14371 20.2746 6.14575 20.0772 6.0252 19.9541C5.90464 19.831 5.70708 19.8291 5.58409 19.9493L3.97213 21.528C3.84897 21.6484 3.84695 21.846 3.96751 21.9691Z" fill="url(#paint0_linear_119_23131)"/>
<path fill-rule="evenodd" clip-rule="evenodd" d="M12.5683 6.15394C12.4533 6.15394 12.3603 6.06077 12.3603 5.94597V5.05589C12.3603 4.9411 12.4533 4.84793 12.5683 4.84793C12.6831 4.84793 12.7762 4.9411 12.7762 5.05589V5.94597C12.7762 6.06077 12.6831 6.15394 12.5683 6.15394ZM12.5683 7.13823C11.9475 7.13823 11.4427 7.64295 11.4427 8.26372C11.4427 8.88407 11.9475 9.38901 12.5683 9.38901C13.1888 9.38901 13.6938 8.88407 13.6938 8.26372C13.6938 7.64295 13.1888 7.13823 12.5683 7.13823ZM12.5683 9.80493C11.7183 9.80493 11.0268 9.11345 11.0268 8.26372C11.0268 7.41378 11.7183 6.7223 12.5683 6.7223C13.4182 6.7223 14.1097 7.41378 14.1097 8.26372C14.1097 9.11345 13.4182 9.80493 12.5683 9.80493ZM10.2996 7.74506C10.3209 7.75213 10.3426 7.75546 10.3639 7.75546C10.4516 7.75546 10.533 7.69952 10.5617 7.61155C10.5971 7.50237 10.5374 7.38507 10.4282 7.34951L9.58169 7.07438C9.47251 7.03902 9.35511 7.09892 9.31953 7.20789C9.28412 7.31728 9.34382 7.43457 9.45308 7.47013L10.2996 7.74506ZM10.6825 11.0666C10.6402 11.0666 10.5974 11.0537 10.5604 11.0269C10.4675 10.9595 10.4469 10.8294 10.5144 10.7364L11.0375 10.0164C11.1049 9.92388 11.235 9.90309 11.328 9.97047C11.4209 10.0381 11.4416 10.168 11.374 10.261L10.851 10.981C10.8103 11.0369 10.7469 11.0666 10.6825 11.0666ZM14.2852 10.981C14.326 11.0369 14.3894 11.0666 14.4539 11.0666C14.4961 11.0666 14.5389 11.0537 14.5757 11.0269C14.6687 10.9595 14.6893 10.8294 14.6219 10.7364L14.0987 10.0164C14.0313 9.92367 13.9015 9.90288 13.8081 9.97047C13.7152 10.0378 13.6946 10.168 13.7622 10.261L14.2852 10.981ZM14.7725 7.75546C14.6847 7.75546 14.6032 7.69952 14.5747 7.61155C14.5391 7.50237 14.5988 7.38507 14.7082 7.34951L15.5546 7.07459C15.6642 7.03902 15.7813 7.09912 15.8166 7.2081C15.852 7.31728 15.7923 7.43457 15.6831 7.47013L14.8367 7.74506C14.8153 7.75213 14.7937 7.75546 14.7725 7.75546ZM11.2671 6.38664C11.3069 6.4482 11.3737 6.48168 11.442 6.48168C11.4806 6.48168 11.5197 6.47087 11.5547 6.44841C11.6512 6.38602 11.6788 6.25729 11.6164 6.1608L11.4716 5.93661C11.4092 5.84012 11.2806 5.81267 11.184 5.87485C11.0875 5.93724 11.0599 6.06597 11.1222 6.16246L11.2671 6.38664ZM10.1999 9.09682C10.1078 9.09682 10.0238 9.03547 9.999 8.94231C9.96942 8.83125 10.0355 8.7175 10.1466 8.68797L10.4047 8.61934C10.5153 8.58981 10.6295 8.65573 10.659 8.76679C10.6886 8.87784 10.6225 8.9918 10.5115 9.02112L10.2533 9.08975C10.2355 9.09453 10.2175 9.09682 10.1999 9.09682ZM12.55 11.0169C12.5539 11.0171 12.5577 11.0174 12.5616 11.0174C12.6712 11.0174 12.7629 10.9317 12.7689 10.8208L12.7837 10.554C12.7899 10.4392 12.702 10.3413 12.5874 10.335C12.4738 10.3288 12.3746 10.4166 12.3684 10.5313L12.3536 10.798C12.3474 10.9125 12.4352 11.0107 12.55 11.0169ZM15.1175 9.36488C15.0925 9.36488 15.0673 9.36051 15.0426 9.35094L14.7935 9.25487C14.6864 9.21348 14.6331 9.09307 14.6745 8.98576C14.7159 8.87866 14.8363 8.82563 14.9434 8.8666L15.1925 8.96289C15.2996 9.00427 15.3529 9.12468 15.3117 9.23178C15.2797 9.31434 15.2009 9.36488 15.1175 9.36488ZM14.0363 6.58379C14.0747 6.61519 14.1211 6.63038 14.1673 6.63038C14.2278 6.63038 14.2877 6.60417 14.3287 6.55364L14.4973 6.34651C14.5697 6.2575 14.5562 6.12648 14.467 6.0539C14.3784 5.98153 14.2469 5.99505 14.1746 6.08406L14.0061 6.29119C13.9335 6.38041 13.9471 6.51142 14.0363 6.58379Z" fill="url(#paint1_linear_119_23131)"/>
<path d="M13.0926 12.3165C10.4668 12.3165 8.33054 14.4527 8.33054 17.0786C8.33054 18.468 8.92891 19.7202 9.88123 20.5913C6.73247 19.3169 4.5045 16.2289 4.5045 12.6284C4.5045 7.89292 8.35709 4.04042 13.0926 4.04042C15.3743 4.04042 17.2306 5.89669 17.2306 8.17846C17.2306 10.4602 15.3743 12.3165 13.0926 12.3165ZM13.9556 18.3796C13.9864 18.3796 14.0165 18.3774 14.0469 18.3751C14.0887 18.3713 14.1349 18.3971 14.1523 18.4381C14.1698 18.4793 14.1609 18.5267 14.1276 18.5562C13.7795 18.8652 13.333 19.0354 12.8703 19.0354C11.8245 19.0354 10.9738 18.1846 10.9738 17.1387C10.9738 16.0931 11.8245 15.2423 12.8703 15.2423C13.333 15.2423 13.7795 15.4124 14.1276 15.7213C14.1609 15.751 14.1717 15.7986 14.1544 15.8396C14.137 15.8808 14.0954 15.9061 14.0509 15.9028C14.0165 15.9003 13.9864 15.898 13.9556 15.898C13.2714 15.898 12.7149 16.4545 12.7149 17.1387C12.7149 17.8229 13.2714 18.3796 13.9556 18.3796ZM22.275 11.9247C22.2689 11.8459 22.265 11.7664 22.2569 11.688C22.2554 11.6729 22.2527 11.6579 22.2512 11.6427C22.1868 11.0402 22.0651 10.4546 21.8898 9.89227C21.879 9.85775 21.8661 9.82406 21.8551 9.78975C21.8195 9.68057 21.784 9.5716 21.7446 9.46449C21.743 9.45992 21.7411 9.45535 21.7394 9.45098C21.6891 9.31456 21.6359 9.17959 21.5795 9.04628C21.5777 9.04212 21.5758 9.03817 21.5739 9.03401C21.5171 8.9005 21.4577 8.76865 21.3949 8.63847C21.3743 8.59563 21.3512 8.55425 21.33 8.51182C21.2844 8.42115 21.2395 8.33006 21.191 8.24126C21.1819 8.22421 21.1715 8.20778 21.1621 8.19093C21.0998 8.0778 21.0361 7.9655 20.9692 7.85549C20.9444 7.81494 20.9176 7.77584 20.8922 7.7357C20.8386 7.65065 20.7857 7.56497 20.7294 7.48178C20.6984 7.43624 20.6653 7.39236 20.6335 7.34723C20.5803 7.27132 20.5276 7.19458 20.4721 7.12034C20.4507 7.09164 20.4274 7.06419 20.4056 7.0357C20.3376 6.94711 20.2696 6.85852 20.1987 6.77242C20.1648 6.73124 20.1286 6.69214 20.0938 6.65159C20.0327 6.57984 19.9722 6.50769 19.9088 6.43781C19.889 6.41618 19.8678 6.39559 19.8478 6.37396C19.7675 6.28745 19.6871 6.20135 19.6037 6.11796C19.5804 6.09467 19.5558 6.07304 19.5325 6.04996C19.4504 5.96989 19.3683 5.88962 19.2834 5.81247C19.2724 5.80269 19.2609 5.79333 19.2499 5.78356C19.1514 5.69476 19.0515 5.60742 18.9492 5.52298C18.913 5.49304 18.8752 5.46517 18.8384 5.43584C18.7598 5.37304 18.6816 5.30961 18.6009 5.24909C18.5726 5.22788 18.5431 5.20854 18.5146 5.18754C18.4237 5.1214 18.333 5.05507 18.2399 4.99226C18.1947 4.96148 18.1477 4.93341 18.102 4.90367C18.0236 4.85272 17.946 4.80094 17.8661 4.75227C17.8223 4.72565 17.7767 4.70132 17.7324 4.67533C17.6488 4.62625 17.5656 4.57654 17.4802 4.53016C17.4444 4.51062 17.4074 4.49315 17.3712 4.47422C17.2757 4.4239 17.1805 4.37337 17.0832 4.32657C17.0445 4.30786 17.0043 4.29122 16.9652 4.27312C16.8692 4.22841 16.7731 4.18328 16.6751 4.14169C16.6446 4.1288 16.6132 4.11777 16.5826 4.10509C16.4749 4.06079 16.3669 4.01691 16.2571 3.97657C16.2182 3.96222 16.1783 3.95037 16.1392 3.93664C16.0365 3.90046 15.934 3.86406 15.8296 3.83162C15.772 3.81353 15.7129 3.79876 15.6549 3.78171C15.5675 3.75654 15.481 3.72993 15.3928 3.70726C15.3332 3.69187 15.2722 3.6796 15.2121 3.66546C15.1239 3.64466 15.0364 3.62241 14.9474 3.60411C14.8923 3.59288 14.8361 3.58456 14.7808 3.57437C14.6854 3.55648 14.5905 3.53777 14.4942 3.523C14.435 3.51385 14.3749 3.50803 14.3154 3.50013C14.2216 3.48765 14.1284 3.47392 14.034 3.46436C13.9631 3.45708 13.8909 3.45355 13.8196 3.44793C13.7354 3.44128 13.6516 3.43295 13.5667 3.42859C13.4946 3.42484 13.4214 3.42505 13.3488 3.42297C13.2641 3.42068 13.1797 3.41653 13.0944 3.41653H13.0926C8.01306 3.41653 3.88062 7.54895 3.88062 12.6284C3.88062 17.626 7.88138 21.7039 12.848 21.8343C12.9289 21.8385 13.0106 21.8406 13.0926 21.8406C18.1721 21.8406 22.3047 17.7081 22.3047 12.6284C22.3047 12.3916 22.2926 12.1574 22.275 11.9247Z" fill="url(#paint2_linear_119_23131)"/>
<defs>
<linearGradient id="paint0_linear_119_23131" x1="-1.91116" y1="21.2932" x2="17.604" y2="18.5294" gradientUnits="userSpaceOnUse">
<stop offset="0.0237305" stop-color="#94783E"/>
<stop offset="0.216904" stop-color="#F3EDA6"/>
<stop offset="0.329505" stop-color="#F8FAE5"/>
<stop offset="0.486109" stop-color="#FFE2BE"/>
<stop offset="0.723574" stop-color="#D5BE88"/>
<stop offset="0.809185" stop-color="#F8FAE5"/>
<stop offset="0.902849" stop-color="#D5BE88"/>
</linearGradient>
<linearGradient id="paint1_linear_119_23131" x1="8.16877" y1="9.96922" x2="17.5484" y2="7.1645" gradientUnits="userSpaceOnUse">
<stop offset="0.0237305" stop-color="#94783E"/>
<stop offset="0.216904" stop-color="#F3EDA6"/>
<stop offset="0.329505" stop-color="#F8FAE5"/>
<stop offset="0.486109" stop-color="#FFE2BE"/>
<stop offset="0.723574" stop-color="#D5BE88"/>
<stop offset="0.809185" stop-color="#F8FAE5"/>
<stop offset="0.902849" stop-color="#D5BE88"/>
</linearGradient>
<linearGradient id="paint2_linear_119_23131" x1="0.656402" y1="6.66783" x2="27.3678" y2="14.289" gradientUnits="userSpaceOnUse">
<stop offset="0.0237305" stop-color="#94783E"/>
<stop offset="0.216904" stop-color="#F3EDA6"/>
<stop offset="0.329505" stop-color="#F8FAE5"/>
<stop offset="0.486109" stop-color="#FFE2BE"/>
<stop offset="0.723574" stop-color="#D5BE88"/>
<stop offset="0.809185" stop-color="#F8FAE5"/>
<stop offset="0.902849" stop-color="#D5BE88"/>
</linearGradient>
</defs>
</svg>
