<svg width="25" height="24" viewBox="0 0 25 24" fill="none" xmlns="http://www.w3.org/2000/svg">
<path fill-rule="evenodd" clip-rule="evenodd" d="M11.9013 8.2602V0.303135C11.9013 0.135718 12.113 0 12.3741 0C12.6352 0 12.8469 0.135718 12.8469 0.303135V8.24985C12.8707 8.53081 12.9013 8.78936 12.9407 9.02752C13.0883 9.92091 13.3516 10.4781 13.7757 10.8449C14.1927 11.2054 14.8177 11.4263 15.8318 11.5516C16.8516 11.6776 18.203 11.7 20.0184 11.7C20.2356 11.7 20.4117 11.8343 20.4117 12C20.4117 12.1658 20.2356 12.3001 20.0184 12.3001C18.203 12.3001 16.8516 12.3225 15.8318 12.4485C14.8177 12.5737 14.1927 12.7947 13.7757 13.1552C13.3516 13.5219 13.0883 14.0792 12.9407 14.9726C12.9013 15.2107 12.8707 15.4693 12.8469 15.7502V23.6968C12.8469 23.8643 12.6352 24 12.3741 24C12.113 24 11.9013 23.8643 11.9013 23.6968V15.7399C11.8776 15.4629 11.8472 15.2078 11.8083 14.9726C11.6607 14.0792 11.3973 13.5219 10.9732 13.1552C10.5562 12.7947 9.93107 12.5737 8.9169 12.4485C7.89712 12.3225 6.54572 12.3001 4.73027 12.3001C4.51309 12.3001 4.33703 12.1658 4.33703 12C4.33703 11.8343 4.51309 11.7 4.73027 11.7C6.54572 11.7 7.89712 11.6776 8.9169 11.5516C9.93107 11.4263 10.5562 11.2054 10.9732 10.8448C11.3973 10.4781 11.6607 9.9209 11.8083 9.02751C11.8472 8.79228 11.8776 8.53716 11.9013 8.2602ZM7.04216 7.55951C7.21689 7.66032 7.21682 7.82372 7.04199 7.92447C6.86715 8.02522 6.58378 8.02518 6.40904 7.92437L3.52189 6.25868C3.34716 6.15787 3.34724 5.99447 3.52207 5.89372C3.6969 5.79297 3.98028 5.79302 4.15501 5.89382L7.04216 7.55951ZM20.313 18.1062C20.4441 18.0055 20.4442 17.8421 20.3131 17.7413L18.1477 16.0756C18.0167 15.9748 17.8042 15.9747 17.673 16.0755C17.5419 16.1762 17.5419 16.3396 17.6729 16.4405L19.8383 18.1061C19.9693 18.2069 20.1819 18.207 20.313 18.1062ZM4.12822 18.8118C3.95947 18.9416 3.68596 18.9415 3.51732 18.8117C3.34867 18.6818 3.34877 18.4713 3.51752 18.3416L6.43583 16.0973C6.60458 15.9675 6.8781 15.9676 7.04674 16.0975C7.21538 16.2273 7.21529 16.4378 7.04653 16.5676L4.12822 18.8118ZM17.673 7.92447C17.8042 8.02522 18.0167 8.02518 18.1477 7.92437L20.3131 6.25868C20.4442 6.15787 20.4441 5.99447 20.313 5.89372C20.1819 5.79297 19.9693 5.79302 19.8383 5.89382L17.6729 7.55951C17.5419 7.66032 17.5419 7.82372 17.673 7.92447ZM5.06887 9.45184C5.24702 9.53403 5.32999 9.75724 5.25419 9.95041C5.17839 10.1436 4.97253 10.2335 4.79438 10.1513L1.71339 8.72992C1.53524 8.64773 1.45228 8.42451 1.52807 8.23135C1.60387 8.03818 1.80974 7.94822 1.98788 8.03041L5.06887 9.45184ZM23.2128 15.7686C23.3076 15.5755 23.2039 15.3522 22.9812 15.2701L19.13 13.8486C18.9073 13.7664 18.6499 13.8564 18.5552 14.0496C18.4604 14.2427 18.5642 14.4659 18.7868 14.5481L22.6381 15.9696C22.8608 16.0517 23.1181 15.9618 23.2128 15.7686ZM15.3697 6.38136C15.2984 6.51842 15.1051 6.58216 14.9378 6.52373C14.7706 6.4653 14.6928 6.30683 14.7641 6.16977L15.9966 3.80037C16.0679 3.66331 16.2613 3.59957 16.4286 3.658C16.5958 3.71643 16.6736 3.8749 16.6023 4.01196L15.3697 6.38136ZM7.47381 20.342C7.72472 20.4004 8.01475 20.3366 8.1216 20.1997L9.97046 17.8298C10.0773 17.6928 9.96053 17.5345 9.70962 17.4762C9.45871 17.4179 9.16869 17.4816 9.06183 17.6186L7.21298 19.9884C7.10612 20.1254 7.2229 20.2837 7.47381 20.342ZM9.97309 6.17761C10.0781 6.3148 9.95169 6.47077 9.69064 6.52598C9.4296 6.58119 9.13282 6.51473 9.02776 6.37754L7.21034 4.00412C7.10529 3.86693 7.23175 3.71096 7.49279 3.65575C7.75384 3.60054 8.05062 3.667 8.15567 3.80419L9.97309 6.17761ZM16.4158 20.3442C16.5898 20.289 16.6742 20.1331 16.6041 19.9959L15.3926 17.6225C15.3226 17.4853 15.1247 17.4188 14.9506 17.474C14.7766 17.5292 14.6922 17.6852 14.7623 17.8224L15.9738 20.1958C16.0438 20.333 16.2417 20.3994 16.4158 20.3442ZM19.9436 10.1629C19.7652 10.2167 19.5624 10.1517 19.4907 10.0176C19.4191 9.88357 19.5056 9.73124 19.684 9.67739L22.7697 8.74616C22.9482 8.69231 23.1509 8.75733 23.2226 8.89139C23.2943 9.02545 23.2078 9.17779 23.0293 9.23164L19.9436 10.1629ZM1.52529 15.7545C1.59712 15.9552 1.79994 16.0524 1.97831 15.9715L5.06406 14.5734C5.24243 14.4926 5.3288 14.2644 5.25697 14.0637C5.18515 13.863 4.98232 13.7658 4.80395 13.8466L1.71821 15.2448C1.53984 15.3256 1.45347 15.5538 1.52529 15.7545ZM11.5628 12.7581C11.9441 13.0877 12.2 13.5035 12.3745 14.0136C12.549 13.5035 12.8048 13.0877 13.186 12.7581C13.6113 12.3904 14.164 12.1541 14.8519 12C14.164 11.846 13.6113 11.6096 13.186 11.242C12.8048 10.9124 12.549 10.4965 12.3745 9.9865C12.2 10.4965 11.9441 10.9124 11.5628 11.242C11.1376 11.6097 10.5848 11.846 9.89691 12C10.5848 12.1541 11.1376 12.3904 11.5628 12.7581Z" fill="url(#paint0_linear_1113_92709)"/>
<defs>
<linearGradient id="paint0_linear_1113_92709" x1="-2.30589" y1="19.7647" x2="29.6549" y2="11.5016" gradientUnits="userSpaceOnUse">
<stop offset="0.0237305" stop-color="#94783E"/>
<stop offset="0.216904" stop-color="#F3EDA6"/>
<stop offset="0.329505" stop-color="#F8FAE5"/>
<stop offset="0.486109" stop-color="#FFE2BE"/>
<stop offset="0.723574" stop-color="#D5BE88"/>
<stop offset="0.809185" stop-color="#F8FAE5"/>
<stop offset="0.902849" stop-color="#D5BE88"/>
</linearGradient>
</defs>
</svg>
