<svg width="24" height="24" viewBox="0 0 24 24" fill="none" xmlns="http://www.w3.org/2000/svg">
<g clip-path="url(#clip0_253_37439)">
<path fill-rule="evenodd" clip-rule="evenodd" d="M9.92872 11.1146C5.75715 11.0567 9.26818 6.54604 11.5908 6.19896L11.5908 6.19689C11.7072 3.95703 13.5479 0.741917 15.7459 -0.00190081C15.7636 0.218802 15.7864 0.43243 15.8084 0.638838C15.9521 1.98613 16.063 3.0258 14.4993 3.7174L14.4993 3.92403C16.7846 2.97565 18.6481 2.47771 21.1473 2.47777C20.2934 5.50694 16.0657 7.27146 13.2528 7.84996L13.2528 8.05659C13.9163 8.20071 14.0211 9.40606 14.1104 10.4335C14.1492 10.8794 14.185 11.2917 14.2623 11.5693C14.6728 13.0384 15.3878 14.2265 16.0855 15.3857C17.0756 17.0309 18.0307 18.6179 18.0307 20.8677L19.2772 20.4545C19.2737 24.4629 13.8197 24.1089 10.0003 23.8611C9.1869 23.8083 8.44766 23.7603 7.85097 23.7603C7.9237 22.7272 8.30389 22.1073 9.30525 21.694C9.29431 21.6519 9.28303 21.6088 9.2715 21.5646C8.96532 20.3926 8.4764 18.521 9.30326 17.4995C9.63904 17.0845 10.105 16.8311 10.5795 16.573C11.0974 16.2914 11.6256 16.0041 12.0061 15.4952C11.3959 16.0402 10.7241 16.3176 10.0539 16.5943C9.53755 16.8075 9.02216 17.0203 8.53667 17.3548C8.23784 17.5591 8.03643 17.8224 7.84129 18.0775C7.53313 18.4804 7.24058 18.8629 6.60459 18.9603C4.93221 19.2413 3.58812 17.394 4.68091 15.9558C5.25337 15.2026 6.0477 15.3415 6.80789 15.4744C7.47403 15.5909 8.11395 15.7028 8.55542 15.2059C8.92144 14.7945 8.97357 14.1846 9.02586 13.573C9.06706 13.091 9.10836 12.608 9.30338 12.2201C9.67459 11.4855 10.6539 11.2127 11.4226 10.9985C11.4799 10.9826 11.5361 10.9669 11.5907 10.9514L11.5907 10.7448C11.4507 10.7819 11.3092 10.8253 11.1664 10.869C10.7606 10.9934 10.3452 11.1208 9.92872 11.1146ZM9.92869 9.09164L9.92871 8.47175L10.552 8.47177L10.5519 9.09166L9.92869 9.09164Z" fill="url(#paint0_linear_253_37439)"/>
</g>
<defs>
<linearGradient id="paint0_linear_253_37439" x1="1.33441" y1="19.7619" x2="26.7496" y2="14.6679" gradientUnits="userSpaceOnUse">
<stop offset="0.0237305" stop-color="#94783E"/>
<stop offset="0.216904" stop-color="#F3EDA6"/>
<stop offset="0.329505" stop-color="#F8FAE5"/>
<stop offset="0.486109" stop-color="#FFE2BE"/>
<stop offset="0.723574" stop-color="#D5BE88"/>
<stop offset="0.809185" stop-color="#F8FAE5"/>
<stop offset="0.902849" stop-color="#D5BE88"/>
</linearGradient>
<clipPath id="clip0_253_37439">
<rect width="24" height="24" fill="white" transform="translate(0.000488281 -0.000259399)"/>
</clipPath>
</defs>
</svg>
