<svg width="25" height="24" viewBox="0 0 25 24" fill="none" xmlns="http://www.w3.org/2000/svg">
<path d="M7.72825 14.6914C7.72825 15.32 7.60017 15.8857 7.34399 16.3886C7.09806 16.88 6.71892 17.2743 6.20657 17.5714C5.70446 17.8571 5.06914 18 4.30061 18C3.50134 18 2.83528 17.8686 2.30243 17.6057C1.77983 17.3429 1.39044 16.9943 1.13427 16.56C0.878088 16.1143 0.75 15.64 0.75 15.1371C0.75 14.4971 0.939571 13.9314 1.31871 13.44C1.7081 12.9371 2.25632 12.5143 2.96337 12.1714C2.34854 11.8286 1.86181 11.4229 1.50316 10.9543C1.14451 10.4743 0.965189 9.84571 0.965189 9.06857C0.965189 8.50857 1.09328 8 1.34945 7.54286C1.60563 7.07429 1.9694 6.70286 2.44077 6.42857C2.92238 6.14286 3.50134 6 4.17765 6C5.20235 6 6.00162 6.26286 6.57546 6.78857C7.15954 7.30286 7.45158 7.94857 7.45158 8.72571C7.45158 9.25143 7.27738 9.71429 6.92898 10.1143C6.58058 10.5143 6.05798 10.8743 5.36118 11.1943C6.08872 11.56 6.66256 12.0057 7.08269 12.5314C7.51307 13.0457 7.72825 13.7657 7.72825 14.6914ZM4.11616 10.5943L4.85395 10.9543C5.2126 10.68 5.45341 10.3657 5.57637 10.0114C5.69934 9.64571 5.76082 9.22286 5.76082 8.74286C5.76082 7.31429 5.22285 6.6 4.1469 6.6C3.63455 6.6 3.23491 6.76571 2.948 7.09714C2.67133 7.41714 2.53299 7.86286 2.53299 8.43429C2.53299 8.96 2.67133 9.39429 2.948 9.73714C3.22467 10.0686 3.61406 10.3543 4.11616 10.5943ZM2.44077 15.0857C2.44077 15.8171 2.59447 16.3886 2.90189 16.8C3.21954 17.2 3.68579 17.4 4.30061 17.4C4.90519 17.4 5.36631 17.2229 5.68396 16.8686C6.00162 16.5143 6.16045 15.9943 6.16045 15.3086C6.16045 14.7486 6.03749 14.2857 5.79156 13.92C5.54563 13.5429 5.12038 13.2114 4.5158 12.9257L3.48597 12.4457C3.13757 12.6971 2.87627 13.0571 2.70207 13.5257C2.52787 13.9829 2.44077 14.5029 2.44077 15.0857Z" fill="url(#paint0_linear_1148_10114)"/>
<path d="M16.2391 14.6914C16.2391 15.32 16.111 15.8857 15.8549 16.3886C15.6089 16.88 15.2298 17.2743 14.7174 17.5714C14.2153 17.8571 13.58 18 12.8115 18C12.0122 18 11.3462 17.8686 10.8133 17.6057C10.2907 17.3429 9.90131 16.9943 9.64514 16.56C9.38896 16.1143 9.26087 15.64 9.26087 15.1371C9.26087 14.4971 9.45044 13.9314 9.82959 13.44C10.219 12.9371 10.7672 12.5143 11.4742 12.1714C10.8594 11.8286 10.3727 11.4229 10.014 10.9543C9.65539 10.4743 9.47606 9.84571 9.47606 9.06857C9.47606 8.50857 9.60415 8 9.86033 7.54286C10.1165 7.07429 10.4803 6.70286 10.9516 6.42857C11.4333 6.14286 12.0122 6 12.6885 6C13.7132 6 14.5125 6.26286 15.0863 6.78857C15.6704 7.30286 15.9625 7.94857 15.9625 8.72571C15.9625 9.25143 15.7883 9.71429 15.4399 10.1143C15.0915 10.5143 14.5689 10.8743 13.8721 11.1943C14.5996 11.56 15.1734 12.0057 15.5936 12.5314C16.0239 13.0457 16.2391 13.7657 16.2391 14.6914ZM12.627 10.5943L13.3648 10.9543C13.7235 10.68 13.9643 10.3657 14.0872 10.0114C14.2102 9.64571 14.2717 9.22286 14.2717 8.74286C14.2717 7.31429 13.7337 6.6 12.6578 6.6C12.1454 6.6 11.7458 6.76571 11.4589 7.09714C11.1822 7.41714 11.0439 7.86286 11.0439 8.43429C11.0439 8.96 11.1822 9.39429 11.4589 9.73714C11.7355 10.0686 12.1249 10.3543 12.627 10.5943ZM10.9516 15.0857C10.9516 15.8171 11.1053 16.3886 11.4128 16.8C11.7304 17.2 12.1967 17.4 12.8115 17.4C13.4161 17.4 13.8772 17.2229 14.1948 16.8686C14.5125 16.5143 14.6713 15.9943 14.6713 15.3086C14.6713 14.7486 14.5484 14.2857 14.3024 13.92C14.0565 13.5429 13.6312 13.2114 13.0267 12.9257L11.9968 12.4457C11.6484 12.6971 11.3871 13.0571 11.2129 13.5257C11.0387 13.9829 10.9516 14.5029 10.9516 15.0857Z" fill="url(#paint1_linear_1148_10114)"/>
<path d="M24.75 14.6914C24.75 15.32 24.6219 15.8857 24.3657 16.3886C24.1198 16.88 23.7407 17.2743 23.2283 17.5714C22.7262 17.8571 22.0909 18 21.3224 18C20.5231 18 19.857 17.8686 19.3242 17.6057C18.8016 17.3429 18.4122 16.9943 18.156 16.56C17.8998 16.1143 17.7717 15.64 17.7717 15.1371C17.7717 14.4971 17.9613 13.9314 18.3405 13.44C18.7298 12.9371 19.2781 12.5143 19.9851 12.1714C19.3703 11.8286 18.8836 11.4229 18.5249 10.9543C18.1663 10.4743 17.9869 9.84571 17.9869 9.06857C17.9869 8.50857 18.115 8 18.3712 7.54286C18.6274 7.07429 18.9911 6.70286 19.4625 6.42857C19.9441 6.14286 20.5231 6 21.1994 6C22.2241 6 23.0234 6.26286 23.5972 6.78857C24.1813 7.30286 24.4733 7.94857 24.4733 8.72571C24.4733 9.25143 24.2991 9.71429 23.9507 10.1143C23.6023 10.5143 23.0797 10.8743 22.3829 11.1943C23.1105 11.56 23.6843 12.0057 24.1044 12.5314C24.5348 13.0457 24.75 13.7657 24.75 14.6914ZM21.1379 10.5943L21.8757 10.9543C22.2343 10.68 22.4751 10.3657 22.5981 10.0114C22.7211 9.64571 22.7826 9.22286 22.7826 8.74286C22.7826 7.31429 22.2446 6.6 21.1686 6.6C20.6563 6.6 20.2567 6.76571 19.9697 7.09714C19.6931 7.41714 19.5547 7.86286 19.5547 8.43429C19.5547 8.96 19.6931 9.39429 19.9697 9.73714C20.2464 10.0686 20.6358 10.3543 21.1379 10.5943ZM19.4625 15.0857C19.4625 15.8171 19.6162 16.3886 19.9236 16.8C20.2413 17.2 20.7075 17.4 21.3224 17.4C21.9269 17.4 22.3881 17.2229 22.7057 16.8686C23.0234 16.5143 23.1822 15.9943 23.1822 15.3086C23.1822 14.7486 23.0592 14.2857 22.8133 13.92C22.5674 13.5429 22.1421 13.2114 21.5375 12.9257L20.5077 12.4457C20.1593 12.6971 19.898 13.0571 19.7238 13.5257C19.5496 13.9829 19.4625 14.5029 19.4625 15.0857Z" fill="url(#paint2_linear_1148_10114)"/>
<defs>
<linearGradient id="paint0_linear_1148_10114" x1="-3.45" y1="15.8824" x2="24.9353" y2="-0.315036" gradientUnits="userSpaceOnUse">
<stop offset="0.0237305" stop-color="#94783E"/>
<stop offset="0.216904" stop-color="#F3EDA6"/>
<stop offset="0.329505" stop-color="#F8FAE5"/>
<stop offset="0.486109" stop-color="#FFE2BE"/>
<stop offset="0.723574" stop-color="#D5BE88"/>
<stop offset="0.809185" stop-color="#F8FAE5"/>
<stop offset="0.902849" stop-color="#D5BE88"/>
</linearGradient>
<linearGradient id="paint1_linear_1148_10114" x1="-3.45" y1="15.8824" x2="24.9353" y2="-0.315036" gradientUnits="userSpaceOnUse">
<stop offset="0.0237305" stop-color="#94783E"/>
<stop offset="0.216904" stop-color="#F3EDA6"/>
<stop offset="0.329505" stop-color="#F8FAE5"/>
<stop offset="0.486109" stop-color="#FFE2BE"/>
<stop offset="0.723574" stop-color="#D5BE88"/>
<stop offset="0.809185" stop-color="#F8FAE5"/>
<stop offset="0.902849" stop-color="#D5BE88"/>
</linearGradient>
<linearGradient id="paint2_linear_1148_10114" x1="-3.45" y1="15.8824" x2="24.9353" y2="-0.315036" gradientUnits="userSpaceOnUse">
<stop offset="0.0237305" stop-color="#94783E"/>
<stop offset="0.216904" stop-color="#F3EDA6"/>
<stop offset="0.329505" stop-color="#F8FAE5"/>
<stop offset="0.486109" stop-color="#FFE2BE"/>
<stop offset="0.723574" stop-color="#D5BE88"/>
<stop offset="0.809185" stop-color="#F8FAE5"/>
<stop offset="0.902849" stop-color="#D5BE88"/>
</linearGradient>
</defs>
</svg>
