<svg width="31" height="25" viewBox="0 0 31 25" fill="none" xmlns="http://www.w3.org/2000/svg">
<path d="M18.0543 21.7409C17.5093 21.7409 16.9707 21.7409 16.4319 21.7409C16.7684 21.8741 17.1099 21.9712 17.4522 22.066C17.8671 22.1809 17.8673 22.18 18.0543 21.7409ZM19.0434 10.0392C19.0434 11.8652 19.0434 13.6373 19.0434 15.466C20.0412 14.7624 20.5385 13.8409 20.5153 12.6841C20.4931 11.58 20.0024 10.6973 19.0434 10.0392ZM19.999 23.9212C21.7748 17.4383 23.5411 10.991 25.3126 4.52463C23.197 3.94367 21.1271 3.37488 19.0546 2.80563C18.9661 3.3425 18.9658 3.34273 19.4407 3.4665C20.5516 3.75606 21.6627 4.04471 22.7736 4.3345C23.1296 4.42704 23.1509 4.46332 23.0674 4.8181C22.9034 5.51319 23.2282 6.18118 23.892 6.43515C24.1744 6.54285 24.2024 6.69303 24.1317 6.95021C22.8259 11.7026 21.5232 16.4557 20.2274 21.2107C20.1511 21.4913 20.029 21.6028 19.7334 21.5376C19.1565 21.4104 18.4273 21.8233 18.252 22.4125C18.1777 22.6617 18.0332 22.7033 17.8088 22.6394C17.2943 22.4925 16.7688 22.3788 16.264 22.2045C14.9567 21.7535 13.619 21.6164 12.1603 21.7643C14.8099 22.4934 17.3827 23.2014 19.999 23.9212ZM19.0422 3.83804C19.0314 3.9292 19.0211 3.97697 19.0211 4.0245C19.0202 5.78117 19.0161 7.53783 19.0298 9.2945C19.0308 9.4038 19.1475 9.54962 19.2507 9.61529C21.5537 11.0824 21.5599 14.4079 19.2523 15.8642C19.0865 15.9689 19.0138 16.0739 19.0152 16.2771C19.0243 17.7798 19.0202 19.2827 19.0202 20.7856C19.0202 20.8802 19.0202 20.9746 19.0202 21.0862C19.2973 21.0722 19.5354 21.0601 19.7909 21.0467C21.0879 16.315 22.3816 11.5931 23.6764 6.86777C22.8048 6.41494 22.4692 5.70654 22.5908 4.75931C21.4051 4.45161 20.241 4.14919 19.0422 3.83804ZM7.54512 1.33898C7.54512 7.9406 7.54512 14.5121 7.54512 21.0862C11.1944 21.0862 14.8232 21.0862 18.4529 21.0862C18.4529 14.494 18.4529 7.92246 18.4529 1.33898C14.8108 1.33898 11.1893 1.33898 7.54512 1.33898ZM6.97678 11.2092C6.97697 7.87057 6.97678 4.53221 6.97706 1.19385C6.97706 0.716225 6.99559 0.697625 7.46986 0.697625C11.1742 0.697625 14.8785 0.697625 18.583 0.697855C18.9998 0.697855 19.0186 0.716914 19.0198 1.1229C19.0204 1.42532 19.0337 1.72866 19.0159 2.0304C19.0023 2.25658 19.0824 2.34453 19.3042 2.40446C21.3624 2.95856 23.4168 3.52712 25.472 4.09178C25.831 4.19052 25.865 4.2477 25.7659 4.60891C23.9852 11.1021 22.204 17.5949 20.4224 24.0879C20.3256 24.4415 20.282 24.4664 19.9313 24.3701C16.8154 23.5152 13.6999 22.6585 10.5827 21.8079C10.3885 21.7546 10.1816 21.7287 9.98008 21.7264C9.1223 21.7176 8.26437 21.7234 7.40651 21.7225C7.01495 21.7223 6.97715 21.6839 6.97706 21.2828C6.9766 17.9249 6.97678 14.567 6.97678 11.2092Z" fill="url(#paint0_linear_7_22)"/>
<path d="M16.4256 19.1082C16.6249 18.3945 17.1217 17.9105 18.0023 17.7202C18.2448 17.6677 18.3021 17.5957 18.301 17.4131C18.2921 15.9056 18.2959 14.3983 18.2959 12.8908C18.2959 10.0553 18.2953 7.21997 18.2975 4.38443C18.2978 4.22463 18.3051 4.10578 18.0252 4.06292C17.5368 3.9884 17.119 3.77625 16.858 3.44502C16.6417 3.17017 16.5082 2.8552 16.3491 2.57739C14.0631 2.57739 11.7418 2.57739 9.42273 2.57739C9.29093 3.52461 8.66522 4.06883 7.53568 4.26263C7.5286 4.33292 7.51712 4.39414 7.51712 4.45558C7.51625 8.78045 7.51752 13.1055 7.51236 17.4304C7.51226 17.605 7.58232 17.6712 7.80464 17.7177C8.57133 17.878 9.09415 18.2666 9.30455 18.8642C9.38232 19.0855 9.50703 19.1129 9.75406 19.112C11.6594 19.1055 13.5649 19.1082 15.4704 19.1082C15.7797 19.1082 16.0887 19.1082 16.4256 19.1082ZM18.8364 10.8999C18.8364 13.1435 18.8364 15.3869 18.8361 17.6303C18.8361 18.0289 18.8359 18.0289 18.3483 18.0842C17.6133 18.1669 17.0377 18.6225 16.9831 19.1994C16.959 19.4542 16.8278 19.5357 16.5096 19.5349C14.1104 19.528 11.711 19.5281 9.31184 19.5349C8.99212 19.536 8.87373 19.4528 8.84599 19.1974C8.78129 18.6029 8.19094 18.1532 7.4404 18.0815C6.99078 18.0386 6.98149 18.0316 6.98149 17.6631C6.98098 13.795 6.98109 9.92738 6.98098 6.05975C6.98098 5.43151 6.98878 4.80326 6.97687 4.17523C6.97274 3.95315 7.0696 3.85794 7.36293 3.83029C8.33116 3.73951 8.8693 3.24785 8.84999 2.48007C8.84483 2.27234 8.93378 2.18262 9.19947 2.17967C11.6673 2.15265 14.1351 2.12331 16.603 2.09312C16.8626 2.08974 16.9696 2.18051 16.9769 2.38528C17.0058 3.17354 17.5112 3.60757 18.5144 3.69982C18.7978 3.726 18.8375 3.85625 18.8372 4.03506C18.835 5.00423 18.8364 5.97341 18.8364 6.94258C18.8364 8.26156 18.8364 9.58074 18.8364 10.8999Z" fill="url(#paint1_linear_7_22)"/>
<path d="M16.2283 11.1588C16.2268 9.14834 14.5922 7.50347 12.5848 7.49228C10.5693 7.48083 8.89803 9.13585 8.89295 11.1487C8.88777 13.1628 10.5387 14.8218 12.5593 14.8327C14.5696 14.8433 16.2299 13.1805 16.2283 11.1588ZM16.7442 11.1859C16.7403 13.4855 14.8543 15.3565 12.5475 15.3487C10.2477 15.3412 8.36854 13.4535 8.37211 11.1549C8.37575 8.85637 10.2783 6.95829 12.5605 6.97677C14.8994 6.99577 16.7481 8.85533 16.7442 11.1859Z" fill="url(#paint2_linear_7_22)"/>
<path d="M11.6013 13.3631C12.5995 13.3207 13.3929 12.4865 13.3991 11.5067C13.4055 10.5143 12.6188 9.68825 11.6173 9.63582C12.6972 11.3767 12.6978 11.9283 11.6013 13.3631ZM11.4858 13.9535C11.2571 13.912 11.019 13.8967 10.8032 13.8191C10.6722 13.7721 10.5242 13.6454 10.4851 13.5228C10.4635 13.4554 10.6322 13.2844 10.7486 13.2243C11.4012 12.8882 11.8074 12.3743 11.856 11.6446C11.9115 10.812 11.527 10.2022 10.7924 9.79475C10.6594 9.72075 10.5731 9.56427 10.4651 9.44603C10.5954 9.34772 10.7124 9.19671 10.8583 9.16039C11.8418 8.91516 12.698 9.16585 13.3537 9.93265C14.0097 10.6995 14.1227 11.5807 13.7168 12.5034C13.3297 13.3827 12.449 13.9311 11.4858 13.9535Z" fill="url(#paint3_linear_7_22)"/>
<path d="M28.147 4.20676C28.4752 3.9057 28.7032 3.60407 29.0412 3.40793C29.565 3.10398 29.8851 2.89723 29.1343 2.50186C28.7741 2.31189 28.5844 1.94198 28.3176 1.65366C27.9263 1.90418 27.7009 2.27178 27.2511 2.48238C26.8914 2.65056 26.9268 2.81661 27.2224 3.03204C27.6357 3.3329 27.9004 3.71477 28.147 4.20676ZM27.755 5.08737C27.7138 4.13984 27.3098 3.34139 26.101 2.87813C25.9672 2.82683 25.8169 2.79771 25.814 2.65345C25.8119 2.54313 25.8839 2.46888 26.0187 2.45018C27.5847 2.23263 27.9907 1.25385 28.5086 0.34856C28.5378 0.297258 28.5386 0.235544 28.5753 0.188679C28.6488 0.094948 28.7259 -0.0361989 28.9022 0.00931645C29.0588 0.0500103 29.0709 0.175757 29.0456 0.294367C28.9899 0.551644 28.9084 0.808728 28.8939 1.06774C28.8509 1.82646 29.3753 2.3333 30.2521 2.65846C30.4335 2.72577 30.684 2.76396 30.6972 2.91999C30.7111 3.08623 30.4355 3.12712 30.274 3.19597C29.2415 3.63685 28.5826 4.2839 28.2635 5.135C28.1983 5.30839 28.2832 5.62796 27.8908 5.57569C27.5671 5.53249 27.7469 5.26499 27.755 5.08737Z" fill="url(#paint4_linear_7_22)"/>
<path d="M2.33325 18.1602C2.66141 17.8591 2.88915 17.5577 3.22722 17.3615C3.75097 17.0576 4.07113 16.8508 3.32051 16.4555C2.96011 16.2655 2.77057 15.8956 2.50359 15.6072C2.11247 15.8578 1.88673 16.2252 1.43707 16.4358C1.07736 16.6042 1.11287 16.7702 1.40837 16.9855C1.82161 17.2863 2.08639 17.6684 2.33325 18.1602ZM1.9411 19.0408C1.89977 18.0933 1.49589 17.295 0.286948 16.8317C0.153279 16.7802 0.00276292 16.7511 4.55555e-05 16.6069C-0.00207658 16.4965 0.0699984 16.4223 0.204754 16.4036C1.77076 16.1862 2.17676 15.2072 2.69466 14.3019C2.72378 14.2508 2.72468 14.1891 2.76148 14.1422C2.83498 14.0485 2.9119 13.9172 3.08842 13.9629C3.24489 14.0034 3.25703 14.1293 3.23156 14.2477C3.17595 14.5052 3.09458 14.7623 3.07991 15.0211C3.03695 15.78 3.56132 16.2869 4.4381 16.6119C4.61957 16.6794 4.86995 16.7176 4.8832 16.8736C4.89726 17.0396 4.62159 17.0807 4.46012 17.1494C3.42768 17.5902 2.76855 18.2373 2.4494 19.0884C2.38439 19.2618 2.46933 19.5816 2.07697 19.5292C1.75308 19.4861 1.93302 19.2184 1.9411 19.0408Z" fill="url(#paint5_linear_7_22)"/>
<defs>
<linearGradient id="paint0_linear_7_22" x1="-5.3721" y1="20.1094" x2="37.2706" y2="4.8143" gradientUnits="userSpaceOnUse">
<stop offset="0.0237305" stop-color="#94783E"/>
<stop offset="0.216904" stop-color="#F3EDA6"/>
<stop offset="0.329505" stop-color="#F8FAE5"/>
<stop offset="0.486109" stop-color="#FFE2BE"/>
<stop offset="0.723574" stop-color="#D5BE88"/>
<stop offset="0.809185" stop-color="#F8FAE5"/>
<stop offset="0.902849" stop-color="#D5BE88"/>
</linearGradient>
<linearGradient id="paint1_linear_7_22" x1="-5.3721" y1="20.1094" x2="37.2706" y2="4.8143" gradientUnits="userSpaceOnUse">
<stop offset="0.0237305" stop-color="#94783E"/>
<stop offset="0.216904" stop-color="#F3EDA6"/>
<stop offset="0.329505" stop-color="#F8FAE5"/>
<stop offset="0.486109" stop-color="#FFE2BE"/>
<stop offset="0.723574" stop-color="#D5BE88"/>
<stop offset="0.809185" stop-color="#F8FAE5"/>
<stop offset="0.902849" stop-color="#D5BE88"/>
</linearGradient>
<linearGradient id="paint2_linear_7_22" x1="-5.3721" y1="20.1094" x2="37.2706" y2="4.8143" gradientUnits="userSpaceOnUse">
<stop offset="0.0237305" stop-color="#94783E"/>
<stop offset="0.216904" stop-color="#F3EDA6"/>
<stop offset="0.329505" stop-color="#F8FAE5"/>
<stop offset="0.486109" stop-color="#FFE2BE"/>
<stop offset="0.723574" stop-color="#D5BE88"/>
<stop offset="0.809185" stop-color="#F8FAE5"/>
<stop offset="0.902849" stop-color="#D5BE88"/>
</linearGradient>
<linearGradient id="paint3_linear_7_22" x1="-5.3721" y1="20.1094" x2="37.2706" y2="4.8143" gradientUnits="userSpaceOnUse">
<stop offset="0.0237305" stop-color="#94783E"/>
<stop offset="0.216904" stop-color="#F3EDA6"/>
<stop offset="0.329505" stop-color="#F8FAE5"/>
<stop offset="0.486109" stop-color="#FFE2BE"/>
<stop offset="0.723574" stop-color="#D5BE88"/>
<stop offset="0.809185" stop-color="#F8FAE5"/>
<stop offset="0.902849" stop-color="#D5BE88"/>
</linearGradient>
<linearGradient id="paint4_linear_7_22" x1="-5.3721" y1="20.1094" x2="37.2706" y2="4.8143" gradientUnits="userSpaceOnUse">
<stop offset="0.0237305" stop-color="#94783E"/>
<stop offset="0.216904" stop-color="#F3EDA6"/>
<stop offset="0.329505" stop-color="#F8FAE5"/>
<stop offset="0.486109" stop-color="#FFE2BE"/>
<stop offset="0.723574" stop-color="#D5BE88"/>
<stop offset="0.809185" stop-color="#F8FAE5"/>
<stop offset="0.902849" stop-color="#D5BE88"/>
</linearGradient>
<linearGradient id="paint5_linear_7_22" x1="-5.3721" y1="20.1094" x2="37.2706" y2="4.8143" gradientUnits="userSpaceOnUse">
<stop offset="0.0237305" stop-color="#94783E"/>
<stop offset="0.216904" stop-color="#F3EDA6"/>
<stop offset="0.329505" stop-color="#F8FAE5"/>
<stop offset="0.486109" stop-color="#FFE2BE"/>
<stop offset="0.723574" stop-color="#D5BE88"/>
<stop offset="0.809185" stop-color="#F8FAE5"/>
<stop offset="0.902849" stop-color="#D5BE88"/>
</linearGradient>
</defs>
</svg>
