<svg width="135" height="44" viewBox="0 0 135 44" fill="none" xmlns="http://www.w3.org/2000/svg">
<rect x="0.5" y="0.5" width="134" height="43" rx="4.5" fill="#100F0D"/>
<path d="M26.7973 21.5804C26.819 19.8994 27.7217 18.3088 29.1539 17.4283C28.2504 16.138 26.7371 15.3199 25.1627 15.2706C23.4835 15.0944 21.8555 16.2754 20.9998 16.2754C20.1275 16.2754 18.81 15.2881 17.3913 15.3173C15.5421 15.3771 13.8181 16.4284 12.9184 18.0452C10.9844 21.3936 12.427 26.3146 14.2796 29.0213C15.2065 30.3466 16.2898 31.8271 17.7072 31.7746C19.0943 31.717 19.6123 30.8901 21.2866 30.8901C22.9454 30.8901 23.4314 31.7746 24.8776 31.7412C26.366 31.717 27.3038 30.4099 28.1981 29.072C28.8641 28.1277 29.3766 27.084 29.7166 25.9795C27.9674 25.2397 26.7994 23.4795 26.7973 21.5804Z" fill="white"/>
<path d="M24.0656 13.4906C24.8772 12.5164 25.277 11.2642 25.1802 10C23.9403 10.1302 22.7951 10.7228 21.9726 11.6596C21.1683 12.5749 20.7497 13.8051 20.8289 15.021C22.0692 15.0338 23.2885 14.4573 24.0656 13.4906Z" fill="white"/>
<path d="M40.33 8.32448V14.9193H42.7111C44.6763 14.9193 45.8142 13.7082 45.8142 11.6013C45.8142 9.52644 44.6671 8.32448 42.7111 8.32448H40.33ZM41.3537 9.2568H42.5968C43.9633 9.2568 44.7722 10.1251 44.7722 11.615C44.7722 13.1277 43.977 13.9869 42.5968 13.9869H41.3537V9.2568Z" fill="white"/>
<path d="M49.2995 15.0152C50.7528 15.0152 51.644 14.0418 51.644 12.4285C51.644 10.8244 50.7482 9.84635 49.2995 9.84635C47.8461 9.84635 46.9504 10.8244 46.9504 12.4285C46.9504 14.0418 47.8416 15.0152 49.2995 15.0152ZM49.2995 14.1423C48.4448 14.1423 47.965 13.5162 47.965 12.4285C47.965 11.3499 48.4448 10.7193 49.2995 10.7193C50.1495 10.7193 50.6339 11.3499 50.6339 12.4285C50.6339 13.5116 50.1495 14.1423 49.2995 14.1423Z" fill="white"/>
<path d="M59.2332 9.94233H58.2506L57.364 13.7401H57.2863L56.2626 9.94233H55.3211L54.2974 13.7401H54.2243L53.3331 9.94233H52.3368L53.7079 14.9193H54.7179L55.7416 11.254H55.8193L56.8476 14.9193H57.8667L59.2332 9.94233Z" fill="white"/>
<path d="M60.3648 14.9193H61.3474V12.008C61.3474 11.2311 61.809 10.7467 62.5356 10.7467C63.2623 10.7467 63.6096 11.1443 63.6096 11.9441V14.9193H64.5922V11.6973C64.5922 10.5136 63.9798 9.84635 62.8692 9.84635C62.1197 9.84635 61.6261 10.18 61.3839 10.733H61.3108V9.94233H60.3648V14.9193Z" fill="white"/>
<path d="M66.1397 14.9193H67.1223V8H66.1397V14.9193Z" fill="white"/>
<path d="M70.8177 15.0152C72.271 15.0152 73.1622 14.0418 73.1622 12.4285C73.1622 10.8244 72.2664 9.84635 70.8177 9.84635C69.3644 9.84635 68.4686 10.8244 68.4686 12.4285C68.4686 14.0418 69.3598 15.0152 70.8177 15.0152ZM70.8177 14.1423C69.9631 14.1423 69.4832 13.5162 69.4832 12.4285C69.4832 11.3499 69.9631 10.7193 70.8177 10.7193C71.6678 10.7193 72.1522 11.3499 72.1522 12.4285C72.1522 13.5116 71.6678 14.1423 70.8177 14.1423Z" fill="white"/>
<path d="M76.0899 14.1743C75.5551 14.1743 75.1667 13.9138 75.1667 13.4659C75.1667 13.0272 75.4775 12.7941 76.163 12.7484L77.3787 12.6707V13.0866C77.3787 13.7036 76.8302 14.1743 76.0899 14.1743ZM75.8385 15.0015C76.492 15.0015 77.0359 14.7182 77.3329 14.22H77.4106V14.9193H78.3567V11.519C78.3567 10.4679 77.6529 9.84635 76.4052 9.84635C75.2764 9.84635 74.472 10.3948 74.3715 11.2494H75.3221C75.4318 10.8975 75.8111 10.6964 76.3595 10.6964C77.0313 10.6964 77.3787 10.9935 77.3787 11.519V11.9486L76.0304 12.0263C74.8468 12.0995 74.1795 12.6159 74.1795 13.5116C74.1795 14.4211 74.8788 15.0015 75.8385 15.0015Z" fill="white"/>
<path d="M81.6911 15.0015C82.3766 15.0015 82.957 14.677 83.2541 14.1332H83.3318V14.9193H84.2732V8H83.2906V10.733H83.2175C82.9479 10.1845 82.372 9.86006 81.6911 9.86006C80.4343 9.86006 79.6254 10.8564 79.6254 12.4285C79.6254 14.0052 80.4251 15.0015 81.6911 15.0015ZM81.9699 10.7421C82.7925 10.7421 83.3089 11.3956 83.3089 12.4331C83.3089 13.4751 82.7971 14.1195 81.9699 14.1195C81.1381 14.1195 80.6399 13.4842 80.6399 12.4285C80.6399 11.3819 81.1427 10.7421 81.9699 10.7421Z" fill="white"/>
<path d="M90.645 15.0152C92.0983 15.0152 92.9895 14.0418 92.9895 12.4285C92.9895 10.8244 92.0937 9.84635 90.645 9.84635C89.1917 9.84635 88.2959 10.8244 88.2959 12.4285C88.2959 14.0418 89.1871 15.0152 90.645 15.0152ZM90.645 14.1423C89.7904 14.1423 89.3105 13.5162 89.3105 12.4285C89.3105 11.3499 89.7904 10.7193 90.645 10.7193C91.495 10.7193 91.9795 11.3499 91.9795 12.4285C91.9795 13.5116 91.495 14.1423 90.645 14.1423Z" fill="white"/>
<path d="M94.2902 14.9193H95.2727V12.008C95.2727 11.2311 95.7343 10.7467 96.461 10.7467C97.1877 10.7467 97.535 11.1443 97.535 11.9441V14.9193H98.5176V11.6973C98.5176 10.5136 97.9052 9.84635 96.7946 9.84635C96.0451 9.84635 95.5515 10.18 95.3093 10.733H95.2362V9.94233H94.2902V14.9193Z" fill="white"/>
<path d="M103.043 8.70381V9.96518H102.252V10.7924H103.043V13.603C103.043 14.5628 103.477 14.9467 104.569 14.9467C104.761 14.9467 104.944 14.9238 105.104 14.8964V14.0783C104.967 14.0921 104.88 14.1012 104.729 14.1012C104.24 14.1012 104.026 13.8727 104.026 13.3517V10.7924H105.104V9.96518H104.026V8.70381H103.043Z" fill="white"/>
<path d="M106.423 14.9193H107.406V12.0126C107.406 11.2585 107.854 10.7512 108.658 10.7512C109.353 10.7512 109.723 11.1534 109.723 11.9486V14.9193H110.705V11.7064C110.705 10.5227 110.052 9.85092 108.992 9.85092C108.242 9.85092 107.716 10.1845 107.474 10.7421H107.397V8H106.423V14.9193Z" fill="white"/>
<path d="M114.25 10.6827C114.977 10.6827 115.452 11.19 115.475 11.9715H112.961C113.016 11.1946 113.523 10.6827 114.25 10.6827ZM115.47 13.5756C115.287 13.9641 114.881 14.1789 114.287 14.1789C113.5 14.1789 112.993 13.6259 112.961 12.753V12.6981H116.476V12.3554C116.476 10.7924 115.639 9.84635 114.255 9.84635C112.851 9.84635 111.96 10.8564 111.96 12.4468C111.96 14.0372 112.833 15.0152 114.259 15.0152C115.397 15.0152 116.192 14.4668 116.416 13.5756H115.47Z" fill="white"/>
<path d="M92.1648 19.8901V22.4128H90.5835V24.0673H92.1648V29.6886C92.1648 31.6081 93.0331 32.3758 95.2177 32.3758C95.6016 32.3758 95.9672 32.3301 96.2871 32.2753V30.6392C96.0129 30.6666 95.8392 30.6849 95.5376 30.6849C94.5596 30.6849 94.13 30.2279 94.13 29.1859V24.0673H96.2871V22.4128H94.13V19.8901H92.1648Z" fill="white"/>
<path d="M101.852 32.513C104.759 32.513 106.541 30.5661 106.541 27.3395C106.541 24.1312 104.75 22.1752 101.852 22.1752C98.9455 22.1752 97.154 24.1312 97.154 27.3395C97.154 30.5661 98.9363 32.513 101.852 32.513ZM101.852 30.7671C100.143 30.7671 99.1831 29.5149 99.1831 27.3395C99.1831 25.1824 100.143 23.921 101.852 23.921C103.552 23.921 104.521 25.1824 104.521 27.3395C104.521 29.5058 103.552 30.7671 101.852 30.7671Z" fill="white"/>
<path d="M108.066 32.321H110.031V26.4437C110.031 25.0453 111.082 24.1038 112.572 24.1038C112.92 24.1038 113.505 24.1678 113.669 24.2226V22.2849C113.459 22.23 113.084 22.2026 112.792 22.2026C111.494 22.2026 110.388 22.9156 110.104 23.8936H109.958V22.3671H108.066V32.321Z" fill="white"/>
<path d="M118.549 23.8479C120.002 23.8479 120.953 24.8625 120.998 26.4255H115.971C116.081 24.8716 117.095 23.8479 118.549 23.8479ZM120.989 29.6337C120.624 30.4107 119.81 30.8403 118.622 30.8403C117.05 30.8403 116.035 29.7343 115.971 27.9885V27.8788H123V27.1933C123 24.0673 121.327 22.1752 118.558 22.1752C115.752 22.1752 113.969 24.1952 113.969 27.3761C113.969 30.5569 115.715 32.513 118.567 32.513C120.843 32.513 122.433 31.4161 122.881 29.6337H120.989Z" fill="white"/>
<path d="M79.2775 28.6452C79.429 31.0894 81.4659 32.6526 84.4975 32.6526C87.7375 32.6526 89.7649 31.0136 89.7649 28.3989C89.7649 26.3431 88.6091 25.2062 85.8049 24.5526L84.2985 24.1831C82.5175 23.7662 81.7975 23.2073 81.7975 22.2315C81.7975 20.9999 82.9154 20.1946 84.5922 20.1946C86.1838 20.1946 87.2827 20.981 87.4817 22.241H89.547C89.4238 19.9389 87.3964 18.3188 84.6206 18.3188C81.6364 18.3188 79.6469 19.9389 79.6469 22.3736C79.6469 24.382 80.7743 25.5757 83.2469 26.1536L85.0091 26.5799C86.8185 27.0062 87.6143 27.6315 87.6143 28.6736C87.6143 29.8863 86.3638 30.7673 84.6585 30.7673C82.8301 30.7673 81.5606 29.9431 81.3806 28.6452H79.2775Z" fill="white"/>
<path d="M58.9202 22.2026C57.5675 22.2026 56.3975 22.879 55.7942 24.0124H55.648V22.3671H53.7559V35.6298H55.7211V30.8128H55.8765C56.3975 31.864 57.5218 32.4855 58.9385 32.4855C61.4521 32.4855 63.0517 30.5021 63.0517 27.3395C63.0517 24.1769 61.4521 22.2026 58.9202 22.2026ZM58.3627 30.7214C56.7174 30.7214 55.6845 29.4235 55.6845 27.3486C55.6845 25.2646 56.7174 23.9667 58.3718 23.9667C60.0354 23.9667 61.0316 25.2372 61.0316 27.3395C61.0316 29.4509 60.0354 30.7214 58.3627 30.7214Z" fill="white"/>
<path d="M69.9281 22.2026C68.5754 22.2026 67.4054 22.879 66.8021 24.0124H66.6559V22.3671H64.7638V35.6298H66.729V30.8128H66.8844C67.4054 31.864 68.5297 32.4855 69.9464 32.4855C72.46 32.4855 74.0596 30.5021 74.0596 27.3395C74.0596 24.1769 72.46 22.2026 69.9281 22.2026ZM69.3706 30.7214C67.7253 30.7214 66.6925 29.4235 66.6925 27.3486C66.6925 25.2646 67.7253 23.9667 69.3797 23.9667C71.0433 23.9667 72.0396 25.2372 72.0396 27.3395C72.0396 29.4509 71.0433 30.7214 69.3706 30.7214Z" fill="white"/>
<path d="M50.2301 32.321H52.4848L47.549 18.6504H45.2658L40.33 32.321H42.509L43.769 28.6926H48.9795L50.2301 32.321ZM46.2985 21.1325H46.4595L48.4395 26.9115H44.309L46.2985 21.1325Z" fill="white"/>
<rect x="0.5" y="0.5" width="134" height="43" rx="4.5" stroke="#A6A6A6"/>
</svg>
