<svg width="135" height="44" viewBox="0 0 135 44" fill="none" xmlns="http://www.w3.org/2000/svg">
<rect x="0.5" y="0.5" width="134" height="43" rx="4.5" fill="#100F0D"/>
<path fill-rule="evenodd" clip-rule="evenodd" d="M26.2059 9.33366H15.1275C9.90879 9.33366 8 11.2425 8 16.4612V27.5397C8 32.7582 9.90879 34.667 15.1275 34.667H26.2024C31.4211 34.667 33.3333 32.7582 33.3333 27.5397V16.4612C33.3333 11.2425 31.4245 9.33366 26.2059 9.33366" fill="#C91C2E"/>
<path d="M19.0523 24.0259H20.0683L19.5587 22.8408L19.0523 24.0259ZM18.8021 24.6233L18.5008 25.3129H17.8147L19.2739 22.0026H19.8667L21.32 25.3129H20.6155L20.3179 24.6233H18.8021ZM29.8429 25.3106H30.5061V22.0026H29.8429V25.3106ZM27.2037 23.8891H28.4259V23.2863H27.2037V22.6082H28.9779V22.0047H26.5408V25.3126H29.0419V24.7092H27.2037V23.8891ZM24.5688 24.2801L23.8168 22.0025H23.2685L22.5165 24.2801L21.7848 22.004H21.0696L22.224 25.3144H22.7803L23.5333 23.14L24.2861 25.3144H24.8475L25.9989 22.004H25.3021L24.5688 24.2801ZM16.8024 23.8983C16.8024 24.4368 16.5349 24.7246 16.0493 24.7246C15.5611 24.7246 15.2923 24.4287 15.2923 23.8754V22.0044H14.6203V23.8983C14.6203 24.8301 15.1379 25.3643 16.0403 25.3643C16.9515 25.3643 17.4741 24.8199 17.4741 23.8709V22.0025H16.8024V23.8983ZM13.0168 22.0026H13.6885V25.3147H13.0168V23.9697H11.4992V25.3147H10.8272V22.0026H11.4992V23.3387H13.0168V22.0026Z" fill="white"/>
<path d="M20.6666 17.7852C18.3416 17.7852 16.4498 15.8934 16.4498 13.5683H17.0456C17.0456 15.565 18.6698 17.1894 20.6666 17.1894C22.6634 17.1894 24.2877 15.565 24.2877 13.5683H24.8834C24.8834 15.8934 22.9917 17.7852 20.6666 17.7852" fill="white"/>
<path d="M41.3333 8.89011H44.8874L44.7874 9.74851H42.3749V11.4109H44.6498V12.2152H42.3749V14.0568H44.9165L44.829 14.9234H41.3333V8.89011Z" fill="white"/>
<path d="M47.3373 11.8442L45.4624 8.89011H46.6456L47.9165 11.061L49.2541 8.89011H50.404L48.5456 11.8066L50.5581 14.9234H49.3581L47.9208 12.5485L46.4581 14.9234H45.3082L47.3373 11.8442Z" fill="white"/>
<path d="M53.9373 11.5837C54.1594 11.3826 54.2706 11.0984 54.2706 10.7317C54.2706 10.3594 54.1573 10.0917 53.9312 9.92771C53.7048 9.76371 53.372 9.68185 52.9333 9.68185H52.3666V11.8234C52.6277 11.865 52.8277 11.8858 52.9666 11.8858C53.3914 11.8858 53.7152 11.7853 53.9373 11.5837ZM51.3248 8.89011H52.9498C53.7136 8.89011 54.2984 9.04585 54.704 9.35678C55.1096 9.66798 55.3122 10.1178 55.3122 10.7066C55.3122 11.1066 55.2213 11.4562 55.0394 11.7546C54.8573 12.0533 54.604 12.2826 54.2789 12.4421C53.9541 12.6021 53.5802 12.6818 53.1581 12.6818C52.9277 12.6818 52.6637 12.6541 52.3666 12.5984V14.9234H51.3248V8.89011Z" fill="white"/>
<path d="M56.3416 8.89011H57.3832V14.0317H59.8789L59.7914 14.9234H56.3416V8.89011Z" fill="white"/>
<path d="M64.1624 13.888C64.4541 13.6922 64.672 13.4229 64.8165 13.0797C64.961 12.7368 65.0333 12.3442 65.0333 11.9026C65.0333 11.4693 64.9693 11.0834 64.8416 10.7442C64.7136 10.4053 64.5096 10.1354 64.229 9.93384C63.9485 9.73251 63.5874 9.63171 63.1456 9.63171C62.7234 9.63171 62.365 9.73384 62.0706 9.93811C61.7762 10.1421 61.5554 10.416 61.4082 10.7589C61.261 11.1021 61.1874 11.4805 61.1874 11.8944C61.1874 12.3304 61.2568 12.7208 61.3957 13.065C61.5344 13.4096 61.7469 13.6818 62.0333 13.8818C62.3192 14.0818 62.6733 14.1818 63.0957 14.1818C63.5152 14.1818 63.8706 14.0837 64.1624 13.888ZM61.4624 14.6277C61.0208 14.3749 60.6832 14.02 60.4498 13.5629C60.2165 13.1061 60.1 12.5749 60.1 11.9693C60.1 11.3333 60.224 10.777 60.4728 10.3005C60.7213 9.82424 61.0797 9.45624 61.5477 9.19624C62.0157 8.93677 62.5677 8.80664 63.204 8.80664C63.8122 8.80664 64.336 8.93251 64.7749 9.18371C65.2136 9.43544 65.5485 9.78877 65.7789 10.2442C66.0096 10.7 66.1248 11.2277 66.1248 11.8277C66.1248 12.4749 65.9992 13.0376 65.7477 13.5152C65.4962 13.9928 65.1381 14.361 64.6728 14.6192C64.2074 14.8776 63.661 15.0067 63.0333 15.0067C62.4277 15.0067 61.904 14.8805 61.4624 14.6277Z" fill="white"/>
<path d="M68.9208 11.7442C69.1733 11.7442 69.397 11.6952 69.5914 11.5962C69.7858 11.4978 69.9373 11.3589 70.0456 11.1797C70.1541 11.0005 70.2082 10.7928 70.2082 10.5568C70.2082 10.2541 70.1123 10.0325 69.9208 9.89225C69.7291 9.75198 69.4499 9.68185 69.0832 9.68185H68.3291V11.7442H68.9208ZM67.2875 8.89011H69.1749C69.8637 8.89011 70.3853 9.02771 70.7395 9.30265C71.0936 9.57758 71.2707 9.97091 71.2707 10.4818C71.2707 10.8013 71.2067 11.0826 71.0789 11.3256C70.9512 11.5688 70.7928 11.7666 70.604 11.9192C70.4149 12.072 70.2208 12.1858 70.0208 12.261L71.8749 14.9234H70.6667L69.0957 12.5317H68.3291V14.9234H67.2875V8.89011Z" fill="white"/>
<path d="M72.7 8.89011H76.2541L76.1541 9.74851H73.7416V11.4109H76.0165V12.2152H73.7416V14.0568H76.2832L76.1957 14.9234H72.7V8.89011Z" fill="white"/>
<path d="M80.1208 8.89011H81.1624V14.9234H80.1208V8.89011Z" fill="white"/>
<path d="M83.9165 9.76105H82.0456L82.1373 8.89011H86.8333L86.7373 9.76105H84.9581V14.9234H83.9165V9.76105Z" fill="white"/>
<path d="M94.0541 13.888C94.3456 13.6922 94.5637 13.4229 94.7082 13.0797C94.8525 12.7368 94.9248 12.3442 94.9248 11.9026C94.9248 11.4693 94.8608 11.0834 94.7333 10.7442C94.6053 10.4053 94.4011 10.1354 94.1208 9.93384C93.84 9.73251 93.4789 9.63171 93.0373 9.63171C92.6149 9.63171 92.2568 9.73384 91.9624 9.93811C91.6677 10.1421 91.4469 10.416 91.3 10.7589C91.1525 11.1021 91.0789 11.4805 91.0789 11.8944C91.0789 12.3304 91.1483 12.7208 91.2875 13.065C91.4261 13.4096 91.6386 13.6818 91.9248 13.8818C92.2109 14.0818 92.5651 14.1818 92.9875 14.1818C93.4067 14.1818 93.7624 14.0837 94.0541 13.888ZM91.3541 14.6277C90.9123 14.3749 90.5749 14.02 90.3416 13.5629C90.1082 13.1061 89.9914 12.5749 89.9914 11.9693C89.9914 11.3333 90.1157 10.777 90.3645 10.3005C90.6128 9.82424 90.9712 9.45624 91.4395 9.19624C91.9075 8.93677 92.4594 8.80664 93.0957 8.80664C93.704 8.80664 94.2275 8.93251 94.6667 9.18371C95.1053 9.43544 95.44 9.78877 95.6707 10.2442C95.9011 10.7 96.0165 11.2277 96.0165 11.8277C96.0165 12.4749 95.8907 13.0376 95.6395 13.5152C95.388 13.9928 95.0296 14.361 94.5645 14.6192C94.0992 14.8776 93.5525 15.0067 92.9248 15.0067C92.3192 15.0067 91.7957 14.8805 91.3541 14.6277Z" fill="white"/>
<path d="M97.1789 8.89011H98.3749L101.359 13.565C101.332 13.1208 101.321 12.7109 101.321 12.336V8.89011H102.287V14.9234H101.129L98.1 10.1733C98.1304 10.7125 98.1456 11.1901 98.1456 11.6066V14.9234H97.1789V8.89011Z" fill="white"/>
<path d="M45.1274 26.8294H48.6232L47.3717 23.4792C47.1994 23.0164 47.0301 22.5053 46.8632 21.9454C46.7125 22.4407 46.5482 22.9464 46.3706 23.4631L45.1274 26.8294ZM49.2205 28.4199H44.5381L43.392 31.5521H41.3333L45.9186 19.8545H47.8643L52.5546 31.5521H50.3912L49.2205 28.4199Z" fill="white"/>
<path d="M58.6275 29.425C59.0339 28.8788 59.2371 28.0808 59.2371 27.0313C59.2371 26.0573 59.0688 25.3508 58.7325 24.912C58.396 24.4735 57.948 24.2542 57.3883 24.2542C57.0008 24.2542 56.6429 24.3459 56.3147 24.5287C55.9864 24.7117 55.6741 24.9565 55.3781 25.2633V29.9295C55.5773 30.0263 55.8088 30.1031 56.0725 30.1593C56.3363 30.2162 56.5973 30.2444 56.8555 30.2444C57.6307 30.2444 58.2211 29.9711 58.6275 29.425ZM53.3843 24.9728C53.3843 24.3269 53.3627 23.6164 53.3197 22.8415H55.1925C55.2624 23.2021 55.3109 23.5709 55.3379 23.9474C56.1128 23.1027 57.0008 22.68 58.0019 22.68C58.5832 22.68 59.1213 22.8266 59.6165 23.1198C60.1115 23.4133 60.5112 23.8761 60.8152 24.5084C61.1195 25.1409 61.2715 25.9443 61.2715 26.9183C61.2715 27.9355 61.0979 28.8048 60.7507 29.5258C60.4035 30.2472 59.9179 30.7932 59.2936 31.1648C58.6693 31.5359 57.948 31.7217 57.1301 31.7217C56.5379 31.7217 55.9539 31.622 55.3781 31.4231V35.0234L53.3843 35.193V24.9728Z" fill="white"/>
<path d="M67.7248 29.425C68.1312 28.8788 68.3344 28.0808 68.3344 27.0313C68.3344 26.0573 68.1661 25.3508 67.8299 24.912C67.4933 24.4735 67.0453 24.2542 66.4856 24.2542C66.0981 24.2542 65.7403 24.3459 65.412 24.5287C65.0835 24.7117 64.7715 24.9565 64.4755 25.2633V29.9295C64.6747 30.0263 64.9059 30.1031 65.1699 30.1593C65.4333 30.2162 65.6944 30.2444 65.9528 30.2444C66.7277 30.2444 67.3184 29.9711 67.7248 29.425ZM62.4813 24.9728C62.4813 24.3269 62.4597 23.6164 62.4168 22.8415H64.2899C64.3597 23.2021 64.4083 23.5709 64.4352 23.9474C65.2101 23.1027 66.0981 22.68 67.0992 22.68C67.6805 22.68 68.2184 22.8266 68.7138 23.1198C69.2088 23.4133 69.6085 23.8761 69.9128 24.5084C70.2165 25.1409 70.3688 25.9443 70.3688 26.9183C70.3688 27.9355 70.1949 28.8048 69.848 29.5258C69.5008 30.2472 69.0149 30.7932 68.3909 31.1648C67.7664 31.5359 67.0453 31.7217 66.2272 31.7217C65.6352 31.7217 65.0512 31.622 64.4755 31.4231V35.0234L62.4813 35.193V24.9728Z" fill="white"/>
<path d="M74.0317 30.9991C73.1704 30.5231 72.5085 29.8407 72.0459 28.9527C71.5827 28.0646 71.3515 27.0152 71.3515 25.8042C71.3515 24.4912 71.6179 23.3756 72.1507 22.4579C72.6835 21.5405 73.4088 20.8515 74.3261 20.3913C75.244 19.9312 76.2731 19.7011 77.4144 19.7011C78.0869 19.7011 78.7288 19.7752 79.3397 19.9231C79.9504 20.0712 80.5194 20.2742 81.0472 20.5327L80.5384 22.0664C79.4781 21.5606 78.4664 21.3076 77.5032 21.3076C76.6904 21.3076 75.9787 21.4812 75.368 21.8284C74.7571 22.1756 74.2819 22.6855 73.9429 23.3582C73.6037 24.031 73.4344 24.8436 73.4344 25.7961C73.4344 26.6306 73.5648 27.3704 73.8256 28.0162C74.0869 28.662 74.4987 29.1735 75.0611 29.5501C75.6235 29.9268 76.3325 30.115 77.1882 30.115C77.5757 30.115 77.9632 30.0829 78.3507 30.0183C78.7381 29.9538 79.1016 29.8596 79.4405 29.7357V27.3704H76.7363V25.8204H81.3781V30.745C80.7107 31.0569 80.0096 31.2967 79.2752 31.4634C78.5403 31.6301 77.8099 31.7135 77.0832 31.7135C75.9099 31.7135 74.8925 31.4757 74.0317 30.9991Z" fill="white"/>
<path d="M87.2693 29.9374C87.6835 29.7386 88.0227 29.4908 88.2864 29.1949V27.5803C87.7427 27.5212 87.2987 27.4915 86.9544 27.4915C86.1309 27.4915 85.5616 27.6245 85.2472 27.8912C84.932 28.1572 84.7747 28.5167 84.7747 28.9687C84.7747 29.3996 84.8891 29.7183 85.1179 29.9255C85.3467 30.1327 85.6573 30.2362 86.0501 30.2362C86.4483 30.2362 86.8547 30.1367 87.2693 29.9374ZM88.464 31.5521C88.3939 31.213 88.348 30.8284 88.3267 30.3978C88.02 30.7639 87.6205 31.0745 87.1277 31.3303C86.6357 31.5858 86.0797 31.7135 85.4608 31.7135C84.9603 31.7135 84.5043 31.6154 84.0923 31.4188C83.6811 31.2226 83.3539 30.9265 83.1117 30.5308C82.8696 30.1354 82.7483 29.6525 82.7483 29.0817C82.7483 28.2369 83.0523 27.5628 83.6605 27.0594C84.2688 26.5563 85.2832 26.3048 86.704 26.3048C87.2368 26.3048 87.7643 26.3426 88.2864 26.4178V26.2483C88.2864 25.4787 88.1221 24.9365 87.7939 24.6214C87.4656 24.3068 86.9947 24.1493 86.3813 24.1493C85.956 24.1493 85.5013 24.2113 85.0168 24.335C84.5325 24.4589 84.1072 24.6068 83.7413 24.779L83.4264 23.3259C83.7816 23.1643 84.2499 23.0164 84.8312 22.8818C85.4125 22.7474 86.0259 22.68 86.6717 22.68C87.4253 22.68 88.0656 22.7943 88.5931 23.023C89.1205 23.2518 89.5323 23.6449 89.8283 24.2016C90.1243 24.7589 90.2723 25.5084 90.2723 26.4501V29.9132C90.2723 30.274 90.2936 30.8205 90.3368 31.5521H88.464Z" fill="white"/>
<path d="M91.8021 29.4612V19.1683L93.788 19.0068V29.106C93.788 29.4774 93.8512 29.7396 93.9776 29.8932C94.104 30.0463 94.3045 30.1234 94.5792 30.1234C94.7029 30.1234 94.8778 30.0938 95.1037 30.0345L95.3378 31.4634C95.1493 31.5388 94.9194 31.5993 94.648 31.645C94.376 31.6906 94.1189 31.7135 93.8768 31.7135C92.4933 31.7135 91.8021 30.9629 91.8021 29.4612Z" fill="white"/>
<path d="M96.7669 29.4612V19.1683L98.7528 19.0068V29.106C98.7528 29.4774 98.816 29.7396 98.9424 29.8932C99.069 30.0463 99.2696 30.1234 99.544 30.1234C99.6677 30.1234 99.8426 30.0938 100.069 30.0345L100.303 31.4634C100.114 31.5388 99.8842 31.5993 99.6128 31.645C99.3408 31.6906 99.0837 31.7135 98.8416 31.7135C97.4584 31.7135 96.7669 30.9629 96.7669 29.4612Z" fill="white"/>
<path d="M106.526 26.1837C106.486 25.4894 106.313 24.9688 106.001 24.6214C105.689 24.2745 105.27 24.1008 104.75 24.1008C104.243 24.1008 103.822 24.2759 103.486 24.6256C103.15 24.9756 102.929 25.4949 102.827 26.1837H106.526ZM108.47 27.4511H102.771C102.862 29.2757 103.731 30.1879 105.379 30.1879C105.787 30.1879 106.206 30.1381 106.635 30.0386C107.062 29.9388 107.473 29.8058 107.865 29.6388L108.302 31.0031C107.326 31.4769 106.233 31.7135 105.017 31.7135C104.089 31.7135 103.31 31.5388 102.675 31.1889C102.038 30.8391 101.561 30.3359 101.241 29.6791C100.921 29.0229 100.761 28.2316 100.761 27.3058C100.761 26.3426 100.93 25.5136 101.27 24.8193C101.609 24.125 102.081 23.595 102.686 23.229C103.291 22.8631 103.99 22.68 104.782 22.68C105.606 22.68 106.291 22.8725 106.843 23.2573C107.395 23.6419 107.803 24.1548 108.07 24.795C108.337 25.4358 108.47 26.1433 108.47 26.9183V27.4511Z" fill="white"/>
<path d="M109.979 25.0292C109.979 24.5504 109.955 23.8212 109.913 22.8415H111.779C111.811 23.0837 111.841 23.373 111.873 23.7094C111.902 24.0457 111.921 24.3188 111.931 24.5287C112.163 24.1466 112.39 23.8251 112.614 23.5641C112.838 23.3029 113.099 23.0905 113.398 22.9261C113.697 22.762 114.035 22.68 114.419 22.68C114.726 22.68 114.987 22.7124 115.209 22.7769L114.958 24.5045C114.766 24.4454 114.55 24.4157 114.313 24.4157C113.846 24.4157 113.435 24.5355 113.086 24.7751C112.737 25.0143 112.363 25.4086 111.963 25.9576V31.5521H109.979V25.0292Z" fill="white"/>
<path d="M116.329 35.1162C116.038 35.0653 115.798 35.0073 115.611 34.9429L115.974 33.4897C116.107 33.5272 116.278 33.5636 116.483 33.5986C116.686 33.6338 116.881 33.6511 117.065 33.6511C117.947 33.6511 118.609 33.0831 119.049 31.9477L119.179 31.6248L115.966 22.8415H118.105L119.721 27.7497C119.982 28.5895 120.153 29.2327 120.227 29.6791C120.379 29.0495 120.555 28.4198 120.761 27.7902L122.401 22.8415H124.409L121.206 31.6653C120.905 32.4993 120.577 33.1719 120.227 33.6834C119.878 34.1945 119.465 34.574 118.99 34.8217C118.513 35.069 117.939 35.193 117.265 35.193C116.931 35.193 116.619 35.1677 116.329 35.1162Z" fill="white"/>
<rect x="0.5" y="0.5" width="134" height="43" rx="4.5" stroke="#A6A6A6"/>
</svg>
