<svg width="135" height="44" viewBox="0 0 135 44" fill="none" xmlns="http://www.w3.org/2000/svg">
<rect x="0.5" y="0.5" width="134" height="43" rx="4.5" fill="#100F0D"/>
<path d="M20.3496 21.4232L9.70312 32.7232C9.70353 32.7256 9.70432 32.7275 9.70472 32.7299C10.0312 33.9568 11.1519 34.8604 12.482 34.8604C13.0137 34.8604 13.5129 34.7166 13.941 34.4643L13.975 34.4443L25.959 27.5291L20.3496 21.4232" fill="#EA4335"/>
<path d="M31.1207 19.4989L31.1106 19.4919L25.9367 16.4926L20.1078 21.6794L25.957 27.5278L31.1035 24.5583C32.0058 24.0712 32.6184 23.12 32.6184 22.0231C32.6184 20.9341 32.014 19.9876 31.1207 19.4989" fill="#FBBC04"/>
<path d="M9.70274 11.2762C9.63874 11.5122 9.6051 11.7594 9.6051 12.0161V31.9837C9.6051 32.2399 9.63834 32.488 9.70314 32.7231L20.716 21.7122L9.70274 11.2762Z" fill="#4285F4"/>
<path d="M20.4282 22L25.9388 16.491L13.9684 9.5508C13.5333 9.2902 13.0255 9.1398 12.4821 9.1398C11.152 9.1398 10.0298 10.0449 9.70316 11.2734C9.70276 11.2746 9.70276 11.2754 9.70276 11.2765L20.4282 22Z" fill="#34A853"/>
<path d="M43.8449 14.729C42.9484 14.729 42.1772 14.4135 41.5555 13.7919C40.9334 13.1698 40.6183 12.3909 40.6183 11.4852C40.6183 10.5796 40.9336 9.80206 41.5555 9.17861C42.1772 8.55686 42.9484 8.2415 43.8449 8.2415C44.3017 8.2415 44.728 8.32039 45.1353 8.48466C45.5429 8.64895 45.8763 8.87702 46.1389 9.17548L46.2008 9.24599L45.5014 9.94521L45.4314 9.85927C45.2573 9.64533 45.0359 9.47911 44.7553 9.35829C44.4757 9.23778 44.1694 9.18212 43.8449 9.18212C43.2134 9.18212 42.6895 9.39657 42.2519 9.83251C42.2518 9.83261 42.2516 9.83261 42.2515 9.83271C41.8239 10.2775 41.609 10.8189 41.609 11.4853C41.609 12.1521 41.8242 12.6937 42.2523 13.1386C42.6899 13.5743 43.2138 13.7899 43.8449 13.7899C44.423 13.7899 44.901 13.6286 45.2769 13.3091H45.2771C45.627 13.0118 45.837 12.6099 45.9113 12.0978H43.7449V11.1759H46.8476L46.8609 11.2603C46.8863 11.4223 46.9043 11.5787 46.9043 11.729C46.9043 12.5892 46.642 13.2913 46.1275 13.8079C45.5467 14.4236 44.7829 14.729 43.8449 14.729L43.8449 14.729ZM70.7867 14.729C69.8888 14.729 69.1267 14.4134 68.5129 13.7919C68.5128 13.7918 68.5128 13.7918 68.5127 13.7917C68.5126 13.7916 68.5126 13.7916 68.5125 13.7915C67.8979 13.1767 67.5929 12.3976 67.5929 11.4852C67.5929 10.5729 67.8979 9.79378 68.5125 9.17899C68.5125 9.17892 68.5126 9.17889 68.5127 9.17879L68.5129 9.17859C69.1267 8.55699 69.8888 8.24148 70.7867 8.24148C71.6829 8.24148 72.4453 8.55707 73.059 9.18796C73.6738 9.80266 73.9789 10.5803 73.9789 11.4852C73.9789 12.3976 73.674 13.1767 73.0594 13.7915L73.0592 13.7917C72.445 14.4136 71.6756 14.729 70.7867 14.729L70.7867 14.729ZM47.7922 14.5946V8.37587H47.8922H51.5062V9.3165H48.7656V11.0243H51.2375V11.9462H48.7656V13.6556H51.5062V14.5946H47.7922ZM53.7793 14.5946V9.3165H52.098V8.37587H56.434V9.3165H56.334H54.7527V14.5946H53.7793ZM59.2051 14.5946V8.37587H60.1785V8.47587V14.5946H59.2051ZM62.6289 14.5946V9.3165H60.9476V8.37587H65.2836V9.3165H65.1836H63.6023V14.5946H62.6289ZM74.843 14.5946V8.37587H75.9406L78.7342 12.8481L78.7101 11.9991V8.37587H79.6836V14.5946H78.7203L75.7924 9.89638L75.8164 10.7448V10.7462V14.5946H74.843ZM70.7867 13.7899C71.4182 13.7899 71.9337 13.5746 72.3539 13.1393L72.3545 13.1385L72.3551 13.1379C72.7813 12.7116 72.9899 12.1628 72.9899 11.4852C72.9899 10.8092 72.7812 10.2586 72.3551 9.83248L72.3545 9.83188L72.3539 9.83128C71.9337 9.39615 71.4183 9.18206 70.7867 9.18206C70.154 9.18206 69.6386 9.39578 69.2105 9.83089L69.2101 9.83129C68.7918 10.2677 68.5836 10.8094 68.5836 11.4852C68.5836 12.1626 68.7917 12.7026 69.2101 13.1391L69.2105 13.1395C69.6387 13.5747 70.1542 13.7899 70.7867 13.7899V13.7899Z" fill="white"/>
<path d="M106.513 31.6821H108.379V19.1805H106.513V31.6821ZM123.32 23.6841L121.181 29.104H121.117L118.897 23.6841H116.887L120.217 31.2591L118.318 35.4732H120.264L125.395 23.6841H123.32ZM112.737 30.2622C112.127 30.2622 111.274 29.9563 111.274 29.2005C111.274 28.2356 112.336 27.8657 113.252 27.8657C114.072 27.8657 114.459 28.0423 114.957 28.2837C114.812 29.4419 113.815 30.2622 112.737 30.2622V30.2622ZM112.963 23.4106C111.612 23.4106 110.213 24.0059 109.634 25.3247L111.29 26.0161C111.644 25.3247 112.303 25.0997 112.995 25.0997C113.96 25.0997 114.941 25.6782 114.957 26.7079V26.8364C114.619 26.6434 113.895 26.354 113.011 26.354C111.225 26.354 109.408 27.3348 109.408 29.1684C109.408 30.8411 110.872 31.9189 112.512 31.9189C113.766 31.9189 114.459 31.3559 114.892 30.6962H114.957V31.6618H116.759V26.8684C116.759 24.6489 115.101 23.4106 112.963 23.4106V23.4106ZM101.431 25.2059H98.7769V20.9208H101.431C102.826 20.9208 103.618 22.0755 103.618 23.0633C103.618 24.0321 102.826 25.2059 101.431 25.2059V25.2059ZM101.383 19.1805H96.9118V31.6821H98.7769V26.9458H101.383C103.451 26.9458 105.484 25.4489 105.484 23.0633C105.484 20.6782 103.451 19.1805 101.383 19.1805ZM77.0015 30.2645C75.7124 30.2645 74.6335 29.1848 74.6335 27.7032C74.6335 26.2044 75.7124 25.1094 77.0015 25.1094C78.2742 25.1094 79.273 26.2044 79.273 27.7032C79.273 29.1848 78.2742 30.2645 77.0015 30.2645V30.2645ZM79.1441 24.3841H79.0796C78.6609 23.8848 77.855 23.4337 76.8406 23.4337C74.7136 23.4337 72.7644 25.3028 72.7644 27.7032C72.7644 30.0872 74.7136 31.9399 76.8406 31.9399C77.855 31.9399 78.6609 31.4887 79.0796 30.9735H79.1441V31.5852C79.1441 33.213 78.2742 34.0825 76.8726 34.0825C75.7292 34.0825 75.0203 33.261 74.73 32.5685L73.1031 33.245C73.5699 34.3724 74.8101 35.7583 76.8726 35.7583C79.064 35.7583 80.9167 34.4692 80.9167 31.3274V23.6915H79.1441V24.3841ZM82.2058 31.6821H84.0738V19.1805H82.2058V31.6821ZM86.8289 27.5579C86.7808 25.9145 88.1024 25.077 89.0524 25.077C89.7938 25.077 90.4214 25.4477 90.6316 25.979L86.8289 27.5579ZM92.6285 26.1399C92.2742 25.1899 91.1949 23.4337 88.9878 23.4337C86.7964 23.4337 84.9761 25.1575 84.9761 27.6868C84.9761 30.0712 86.7808 31.9399 89.1968 31.9399C91.146 31.9399 92.2742 30.7481 92.7417 30.0551L91.2917 29.0883C90.8082 29.7973 90.148 30.2645 89.1968 30.2645C88.2468 30.2645 87.5699 29.8294 87.1355 28.9755L92.8218 26.6235L92.6285 26.1399ZM47.3207 24.7387V26.543H51.6382C51.5093 27.5579 51.171 28.2989 50.6554 28.8145C50.0269 29.4426 49.0441 30.1356 47.3207 30.1356C44.6624 30.1356 42.5843 27.993 42.5843 25.3348C42.5843 22.6766 44.6624 20.5337 47.3207 20.5337C48.7546 20.5337 49.8015 21.0977 50.5749 21.8227L51.848 20.5497C50.7683 19.5188 49.3347 18.7294 47.3207 18.7294C43.6792 18.7294 40.6183 21.6938 40.6183 25.3348C40.6183 28.9755 43.6792 31.9399 47.3207 31.9399C49.2859 31.9399 50.7683 31.2954 51.9281 30.0872C53.1203 28.895 53.491 27.2196 53.491 25.8661C53.491 25.4477 53.4585 25.061 53.3941 24.7387H47.3207ZM58.3996 30.2645C57.1105 30.2645 55.9988 29.2012 55.9988 27.6868C55.9988 26.1563 57.1105 25.1094 58.3996 25.1094C59.6882 25.1094 60.7999 26.1563 60.7999 27.6868C60.7999 29.2012 59.6882 30.2645 58.3996 30.2645V30.2645ZM58.3996 23.4337C56.0468 23.4337 54.13 25.2219 54.13 27.6868C54.13 30.1356 56.0468 31.9399 58.3996 31.9399C60.7515 31.9399 62.6688 30.1356 62.6688 27.6868C62.6688 25.2219 60.7515 23.4337 58.3996 23.4337ZM67.7124 30.2645C66.4242 30.2645 65.3121 29.2012 65.3121 27.6868C65.3121 26.1563 66.4242 25.1094 67.7124 25.1094C69.0015 25.1094 70.1128 26.1563 70.1128 27.6868C70.1128 29.2012 69.0015 30.2645 67.7124 30.2645ZM67.7124 23.4337C65.3605 23.4337 63.4438 25.2219 63.4438 27.6868C63.4438 30.1356 65.3605 31.9399 67.7124 31.9399C70.0652 31.9399 71.9821 30.1356 71.9821 27.6868C71.9821 25.2219 70.0652 23.4337 67.7124 23.4337Z" fill="white"/>
<rect x="0.5" y="0.5" width="134" height="43" rx="4.5" stroke="#A6A6A6"/>
</svg>
