<svg xmlns="http://www.w3.org/2000/svg" xmlns:xlink="http://www.w3.org/1999/xlink" version="1.1" shape-rendering="crispEdges" viewBox="0 0 37 37"><rect x="0" y="0" height="37" width="37" fill="#000000"/><rect x="0" y="0" height="1" width="7" fill="#ffffff"/><rect x="8" y="0" height="1" width="3" fill="#ffffff"/><rect x="16" y="0" height="1" width="2" fill="#ffffff"/><rect x="19" y="0" height="5" width="1" fill="#ffffff"/><rect x="21" y="0" height="1" width="2" fill="#ffffff"/><rect x="25" y="0" height="1" width="3" fill="#ffffff"/><rect x="30" y="0" height="1" width="7" fill="#ffffff"/><rect x="0" y="1" height="6" width="1" fill="#ffffff"/><rect x="6" y="1" height="6" width="1" fill="#ffffff"/><rect x="8" y="1" height="1" width="1" fill="#ffffff"/><rect x="11" y="1" height="1" width="3" fill="#ffffff"/><rect x="15" y="1" height="1" width="1" fill="#ffffff"/><rect x="17" y="1" height="1" width="1" fill="#ffffff"/><rect x="20" y="1" height="1" width="2" fill="#ffffff"/><rect x="24" y="1" height="2" width="1" fill="#ffffff"/><rect x="26" y="1" height="1" width="3" fill="#ffffff"/><rect x="30" y="1" height="6" width="1" fill="#ffffff"/><rect x="36" y="1" height="6" width="1" fill="#ffffff"/><rect x="2" y="2" height="3" width="3" fill="#ffffff"/><rect x="12" y="2" height="1" width="3" fill="#ffffff"/><rect x="22" y="2" height="1" width="1" fill="#ffffff"/><rect x="26" y="2" height="1" width="2" fill="#ffffff"/><rect x="32" y="2" height="3" width="3" fill="#ffffff"/><rect x="8" y="3" height="4" width="1" fill="#ffffff"/><rect x="10" y="3" height="1" width="3" fill="#ffffff"/><rect x="23" y="3" height="1" width="1" fill="#ffffff"/><rect x="26" y="3" height="1" width="1" fill="#ffffff"/><rect x="9" y="4" height="1" width="1" fill="#ffffff"/><rect x="11" y="4" height="2" width="1" fill="#ffffff"/><rect x="13" y="4" height="1" width="1" fill="#ffffff"/><rect x="15" y="4" height="2" width="2" fill="#ffffff"/><rect x="20" y="4" height="1" width="3" fill="#ffffff"/><rect x="24" y="4" height="5" width="1" fill="#ffffff"/><rect x="27" y="4" height="2" width="1" fill="#ffffff"/><rect x="10" y="5" height="3" width="1" fill="#ffffff"/><rect x="12" y="5" height="4" width="1" fill="#ffffff"/><rect x="17" y="5" height="1" width="2" fill="#ffffff"/><rect x="20" y="5" height="1" width="2" fill="#ffffff"/><rect x="28" y="5" height="2" width="1" fill="#ffffff"/><rect x="1" y="6" height="1" width="5" fill="#ffffff"/><rect x="14" y="6" height="1" width="1" fill="#ffffff"/><rect x="16" y="6" height="1" width="1" fill="#ffffff"/><rect x="18" y="6" height="1" width="1" fill="#ffffff"/><rect x="20" y="6" height="1" width="1" fill="#ffffff"/><rect x="22" y="6" height="1" width="1" fill="#ffffff"/><rect x="26" y="6" height="4" width="1" fill="#ffffff"/><rect x="31" y="6" height="1" width="5" fill="#ffffff"/><rect x="15" y="7" height="3" width="1" fill="#ffffff"/><rect x="19" y="7" height="1" width="1" fill="#ffffff"/><rect x="21" y="7" height="1" width="1" fill="#ffffff"/><rect x="3" y="8" height="1" width="1" fill="#ffffff"/><rect x="6" y="8" height="1" width="1" fill="#ffffff"/><rect x="9" y="8" height="4" width="1" fill="#ffffff"/><rect x="11" y="8" height="1" width="1" fill="#ffffff"/><rect x="16" y="8" height="1" width="2" fill="#ffffff"/><rect x="25" y="8" height="1" width="1" fill="#ffffff"/><rect x="27" y="8" height="1" width="2" fill="#ffffff"/><rect x="31" y="8" height="1" width="3" fill="#ffffff"/><rect x="35" y="8" height="3" width="2" fill="#ffffff"/><rect x="0" y="9" height="1" width="1" fill="#ffffff"/><rect x="2" y="9" height="3" width="1" fill="#ffffff"/><rect x="10" y="9" height="2" width="1" fill="#ffffff"/><rect x="13" y="9" height="1" width="1" fill="#ffffff"/><rect x="17" y="9" height="1" width="3" fill="#ffffff"/><rect x="22" y="9" height="1" width="2" fill="#ffffff"/><rect x="28" y="9" height="1" width="1" fill="#ffffff"/><rect x="30" y="9" height="2" width="1" fill="#ffffff"/><rect x="34" y="9" height="1" width="1" fill="#ffffff"/><rect x="3" y="10" height="1" width="6" fill="#ffffff"/><rect x="12" y="10" height="1" width="1" fill="#ffffff"/><rect x="14" y="10" height="1" width="1" fill="#ffffff"/><rect x="16" y="10" height="1" width="2" fill="#ffffff"/><rect x="19" y="10" height="1" width="2" fill="#ffffff"/><rect x="23" y="10" height="1" width="1" fill="#ffffff"/><rect x="32" y="10" height="1" width="2" fill="#ffffff"/><rect x="1" y="11" height="1" width="1" fill="#ffffff"/><rect x="3" y="11" height="2" width="1" fill="#ffffff"/><rect x="7" y="11" height="3" width="1" fill="#ffffff"/><rect x="11" y="11" height="2" width="1" fill="#ffffff"/><rect x="15" y="11" height="1" width="2" fill="#ffffff"/><rect x="21" y="11" height="1" width="2" fill="#ffffff"/><rect x="24" y="11" height="2" width="2" fill="#ffffff"/><rect x="27" y="11" height="1" width="2" fill="#ffffff"/><rect x="31" y="11" height="1" width="2" fill="#ffffff"/><rect x="0" y="12" height="1" width="1" fill="#ffffff"/><rect x="4" y="12" height="1" width="1" fill="#ffffff"/><rect x="6" y="12" height="1" width="1" fill="#ffffff"/><rect x="10" y="12" height="4" width="1" fill="#ffffff"/><rect x="12" y="12" height="1" width="3" fill="#ffffff"/><rect x="16" y="12" height="1" width="2" fill="#ffffff"/><rect x="20" y="12" height="1" width="2" fill="#ffffff"/><rect x="28" y="12" height="1" width="3" fill="#ffffff"/><rect x="33" y="12" height="2" width="1" fill="#ffffff"/><rect x="35" y="12" height="1" width="1" fill="#ffffff"/><rect x="5" y="13" height="3" width="1" fill="#ffffff"/><rect x="17" y="13" height="1" width="2" fill="#ffffff"/><rect x="24" y="13" height="1" width="1" fill="#ffffff"/><rect x="28" y="13" height="1" width="1" fill="#ffffff"/><rect x="30" y="13" height="1" width="2" fill="#ffffff"/><rect x="36" y="13" height="3" width="1" fill="#ffffff"/><rect x="3" y="14" height="1" width="1" fill="#ffffff"/><rect x="6" y="14" height="1" width="1" fill="#ffffff"/><rect x="9" y="14" height="1" width="1" fill="#ffffff"/><rect x="11" y="14" height="1" width="2" fill="#ffffff"/><rect x="14" y="14" height="1" width="2" fill="#ffffff"/><rect x="17" y="14" height="1" width="1" fill="#ffffff"/><rect x="21" y="14" height="1" width="1" fill="#ffffff"/><rect x="29" y="14" height="1" width="2" fill="#ffffff"/><rect x="34" y="14" height="1" width="1" fill="#ffffff"/><rect x="0" y="15" height="1" width="1" fill="#ffffff"/><rect x="2" y="15" height="2" width="1" fill="#ffffff"/><rect x="7" y="15" height="1" width="1" fill="#ffffff"/><rect x="14" y="15" height="1" width="1" fill="#ffffff"/><rect x="19" y="15" height="2" width="2" fill="#ffffff"/><rect x="22" y="15" height="1" width="1" fill="#ffffff"/><rect x="25" y="15" height="1" width="2" fill="#ffffff"/><rect x="28" y="15" height="1" width="1" fill="#ffffff"/><rect x="35" y="15" height="2" width="1" fill="#ffffff"/><rect x="1" y="16" height="1" width="1" fill="#ffffff"/><rect x="3" y="16" height="1" width="2" fill="#ffffff"/><rect x="6" y="16" height="1" width="1" fill="#ffffff"/><rect x="11" y="16" height="1" width="1" fill="#ffffff"/><rect x="13" y="16" height="2" width="1" fill="#ffffff"/><rect x="18" y="16" height="2" width="1" fill="#ffffff"/><rect x="23" y="16" height="1" width="2" fill="#ffffff"/><rect x="29" y="16" height="1" width="3" fill="#ffffff"/><rect x="33" y="16" height="3" width="2" fill="#ffffff"/><rect x="12" y="17" height="2" width="1" fill="#ffffff"/><rect x="15" y="17" height="1" width="2" fill="#ffffff"/><rect x="20" y="17" height="2" width="1" fill="#ffffff"/><rect x="25" y="17" height="1" width="2" fill="#ffffff"/><rect x="29" y="17" height="1" width="2" fill="#ffffff"/><rect x="32" y="17" height="2" width="1" fill="#ffffff"/><rect x="36" y="17" height="3" width="1" fill="#ffffff"/><rect x="0" y="18" height="2" width="1" fill="#ffffff"/><rect x="3" y="18" height="3" width="2" fill="#ffffff"/><rect x="6" y="18" height="1" width="4" fill="#ffffff"/><rect x="14" y="18" height="1" width="1" fill="#ffffff"/><rect x="17" y="18" height="1" width="1" fill="#ffffff"/><rect x="19" y="18" height="1" width="1" fill="#ffffff"/><rect x="22" y="18" height="3" width="1" fill="#ffffff"/><rect x="26" y="18" height="1" width="1" fill="#ffffff"/><rect x="28" y="18" height="3" width="1" fill="#ffffff"/><rect x="31" y="18" height="3" width="1" fill="#ffffff"/><rect x="35" y="18" height="1" width="1" fill="#ffffff"/><rect x="2" y="19" height="1" width="1" fill="#ffffff"/><rect x="7" y="19" height="4" width="1" fill="#ffffff"/><rect x="9" y="19" height="1" width="3" fill="#ffffff"/><rect x="16" y="19" height="5" width="1" fill="#ffffff"/><rect x="18" y="19" height="3" width="1" fill="#ffffff"/><rect x="27" y="19" height="1" width="1" fill="#ffffff"/><rect x="34" y="19" height="1" width="1" fill="#ffffff"/><rect x="1" y="20" height="1" width="1" fill="#ffffff"/><rect x="5" y="20" height="1" width="2" fill="#ffffff"/><rect x="8" y="20" height="2" width="1" fill="#ffffff"/><rect x="10" y="20" height="1" width="1" fill="#ffffff"/><rect x="14" y="20" height="2" width="1" fill="#ffffff"/><rect x="19" y="20" height="3" width="2" fill="#ffffff"/><rect x="23" y="20" height="1" width="4" fill="#ffffff"/><rect x="30" y="20" height="2" width="1" fill="#ffffff"/><rect x="32" y="20" height="1" width="1" fill="#ffffff"/><rect x="35" y="20" height="2" width="1" fill="#ffffff"/><rect x="3" y="21" height="4" width="1" fill="#ffffff"/><rect x="12" y="21" height="5" width="1" fill="#ffffff"/><rect x="17" y="21" height="1" width="1" fill="#ffffff"/><rect x="21" y="21" height="3" width="1" fill="#ffffff"/><rect x="23" y="21" height="1" width="1" fill="#ffffff"/><rect x="25" y="21" height="1" width="1" fill="#ffffff"/><rect x="29" y="21" height="1" width="1" fill="#ffffff"/><rect x="33" y="21" height="2" width="1" fill="#ffffff"/><rect x="36" y="21" height="2" width="1" fill="#ffffff"/><rect x="0" y="22" height="2" width="1" fill="#ffffff"/><rect x="5" y="22" height="1" width="2" fill="#ffffff"/><rect x="11" y="22" height="3" width="1" fill="#ffffff"/><rect x="22" y="22" height="2" width="1" fill="#ffffff"/><rect x="26" y="22" height="2" width="1" fill="#ffffff"/><rect x="31" y="22" height="1" width="2" fill="#ffffff"/><rect x="1" y="23" height="2" width="1" fill="#ffffff"/><rect x="13" y="23" height="1" width="2" fill="#ffffff"/><rect x="18" y="23" height="3" width="1" fill="#ffffff"/><rect x="20" y="23" height="1" width="1" fill="#ffffff"/><rect x="23" y="23" height="3" width="1" fill="#ffffff"/><rect x="25" y="23" height="2" width="1" fill="#ffffff"/><rect x="29" y="23" height="2" width="1" fill="#ffffff"/><rect x="32" y="23" height="1" width="1" fill="#ffffff"/><rect x="35" y="23" height="3" width="1" fill="#ffffff"/><rect x="5" y="24" height="1" width="3" fill="#ffffff"/><rect x="10" y="24" height="1" width="1" fill="#ffffff"/><rect x="14" y="24" height="2" width="1" fill="#ffffff"/><rect x="24" y="24" height="6" width="1" fill="#ffffff"/><rect x="27" y="24" height="1" width="1" fill="#ffffff"/><rect x="30" y="24" height="5" width="1" fill="#ffffff"/><rect x="36" y="24" height="4" width="1" fill="#ffffff"/><rect x="4" y="25" height="2" width="1" fill="#ffffff"/><rect x="7" y="25" height="1" width="3" fill="#ffffff"/><rect x="13" y="25" height="4" width="1" fill="#ffffff"/><rect x="15" y="25" height="1" width="2" fill="#ffffff"/><rect x="19" y="25" height="1" width="3" fill="#ffffff"/><rect x="31" y="25" height="1" width="1" fill="#ffffff"/><rect x="33" y="25" height="1" width="2" fill="#ffffff"/><rect x="0" y="26" height="1" width="1" fill="#ffffff"/><rect x="2" y="26" height="1" width="2" fill="#ffffff"/><rect x="6" y="26" height="1" width="1" fill="#ffffff"/><rect x="9" y="26" height="1" width="3" fill="#ffffff"/><rect x="16" y="26" height="1" width="1" fill="#ffffff"/><rect x="19" y="26" height="2" width="1" fill="#ffffff"/><rect x="21" y="26" height="1" width="1" fill="#ffffff"/><rect x="25" y="26" height="2" width="2" fill="#ffffff"/><rect x="29" y="26" height="1" width="1" fill="#ffffff"/><rect x="34" y="26" height="1" width="1" fill="#ffffff"/><rect x="1" y="27" height="2" width="1" fill="#ffffff"/><rect x="3" y="27" height="1" width="1" fill="#ffffff"/><rect x="7" y="27" height="2" width="1" fill="#ffffff"/><rect x="9" y="27" height="3" width="1" fill="#ffffff"/><rect x="12" y="27" height="2" width="1" fill="#ffffff"/><rect x="15" y="27" height="1" width="1" fill="#ffffff"/><rect x="17" y="27" height="2" width="1" fill="#ffffff"/><rect x="32" y="27" height="8" width="1" fill="#ffffff"/><rect x="0" y="28" height="1" width="1" fill="#ffffff"/><rect x="2" y="28" height="1" width="1" fill="#ffffff"/><rect x="5" y="28" height="1" width="2" fill="#ffffff"/><rect x="11" y="28" height="3" width="1" fill="#ffffff"/><rect x="18" y="28" height="1" width="1" fill="#ffffff"/><rect x="20" y="28" height="2" width="1" fill="#ffffff"/><rect x="23" y="28" height="2" width="1" fill="#ffffff"/><rect x="28" y="28" height="1" width="2" fill="#ffffff"/><rect x="31" y="28" height="1" width="1" fill="#ffffff"/><rect x="34" y="28" height="1" width="2" fill="#ffffff"/><rect x="8" y="29" height="1" width="1" fill="#ffffff"/><rect x="10" y="29" height="1" width="1" fill="#ffffff"/><rect x="15" y="29" height="1" width="1" fill="#ffffff"/><rect x="21" y="29" height="2" width="2" fill="#ffffff"/><rect x="26" y="29" height="2" width="3" fill="#ffffff"/><rect x="36" y="29" height="3" width="1" fill="#ffffff"/><rect x="0" y="30" height="1" width="7" fill="#ffffff"/><rect x="12" y="30" height="1" width="1" fill="#ffffff"/><rect x="16" y="30" height="1" width="1" fill="#ffffff"/><rect x="19" y="30" height="1" width="1" fill="#ffffff"/><rect x="30" y="30" height="1" width="1" fill="#ffffff"/><rect x="34" y="30" height="2" width="1" fill="#ffffff"/><rect x="0" y="31" height="6" width="1" fill="#ffffff"/><rect x="6" y="31" height="6" width="1" fill="#ffffff"/><rect x="9" y="31" height="1" width="2" fill="#ffffff"/><rect x="14" y="31" height="3" width="1" fill="#ffffff"/><rect x="17" y="31" height="3" width="1" fill="#ffffff"/><rect x="20" y="31" height="1" width="1" fill="#ffffff"/><rect x="22" y="31" height="1" width="1" fill="#ffffff"/><rect x="24" y="31" height="2" width="1" fill="#ffffff"/><rect x="26" y="31" height="1" width="1" fill="#ffffff"/><rect x="28" y="31" height="6" width="1" fill="#ffffff"/><rect x="2" y="32" height="3" width="3" fill="#ffffff"/><rect x="11" y="32" height="1" width="3" fill="#ffffff"/><rect x="15" y="32" height="1" width="2" fill="#ffffff"/><rect x="19" y="32" height="2" width="1" fill="#ffffff"/><rect x="21" y="32" height="3" width="1" fill="#ffffff"/><rect x="23" y="32" height="2" width="1" fill="#ffffff"/><rect x="25" y="32" height="5" width="1" fill="#ffffff"/><rect x="29" y="32" height="1" width="3" fill="#ffffff"/><rect x="33" y="32" height="1" width="1" fill="#ffffff"/><rect x="8" y="33" height="1" width="5" fill="#ffffff"/><rect x="15" y="33" height="1" width="1" fill="#ffffff"/><rect x="22" y="33" height="1" width="1" fill="#ffffff"/><rect x="27" y="33" height="2" width="1" fill="#ffffff"/><rect x="29" y="33" height="2" width="1" fill="#ffffff"/><rect x="31" y="33" height="1" width="1" fill="#ffffff"/><rect x="34" y="33" height="1" width="3" fill="#ffffff"/><rect x="9" y="34" height="2" width="1" fill="#ffffff"/><rect x="12" y="34" height="3" width="1" fill="#ffffff"/><rect x="18" y="34" height="1" width="1" fill="#ffffff"/><rect x="20" y="34" height="1" width="1" fill="#ffffff"/><rect x="26" y="34" height="1" width="1" fill="#ffffff"/><rect x="33" y="34" height="1" width="2" fill="#ffffff"/><rect x="36" y="34" height="1" width="1" fill="#ffffff"/><rect x="10" y="35" height="2" width="1" fill="#ffffff"/><rect x="14" y="35" height="1" width="2" fill="#ffffff"/><rect x="17" y="35" height="1" width="1" fill="#ffffff"/><rect x="19" y="35" height="1" width="1" fill="#ffffff"/><rect x="24" y="35" height="2" width="1" fill="#ffffff"/><rect x="31" y="35" height="2" width="1" fill="#ffffff"/><rect x="1" y="36" height="1" width="5" fill="#ffffff"/><rect x="11" y="36" height="1" width="1" fill="#ffffff"/><rect x="15" y="36" height="1" width="2" fill="#ffffff"/><rect x="18" y="36" height="1" width="1" fill="#ffffff"/><rect x="20" y="36" height="1" width="1" fill="#ffffff"/><rect x="27" y="36" height="1" width="1" fill="#ffffff"/><rect x="30" y="36" height="1" width="1" fill="#ffffff"/><rect x="33" y="36" height="1" width="1" fill="#ffffff"/><rect x="35" y="36" height="1" width="2" fill="#ffffff"/></svg>