<svg xmlns="http://www.w3.org/2000/svg" xmlns:xlink="http://www.w3.org/1999/xlink" version="1.1" shape-rendering="crispEdges" viewBox="0 0 37 37"><rect x="0" y="0" height="37" width="37" fill="#000000"/><rect x="0" y="0" height="1" width="7" fill="#ffffff"/><rect x="8" y="0" height="1" width="1" fill="#ffffff"/><rect x="13" y="0" height="5" width="1" fill="#ffffff"/><rect x="15" y="0" height="1" width="3" fill="#ffffff"/><rect x="20" y="0" height="1" width="1" fill="#ffffff"/><rect x="22" y="0" height="2" width="2" fill="#ffffff"/><rect x="26" y="0" height="3" width="1" fill="#ffffff"/><rect x="30" y="0" height="1" width="7" fill="#ffffff"/><rect x="0" y="1" height="6" width="1" fill="#ffffff"/><rect x="6" y="1" height="6" width="1" fill="#ffffff"/><rect x="10" y="1" height="1" width="3" fill="#ffffff"/><rect x="16" y="1" height="3" width="2" fill="#ffffff"/><rect x="30" y="1" height="6" width="1" fill="#ffffff"/><rect x="36" y="1" height="6" width="1" fill="#ffffff"/><rect x="2" y="2" height="3" width="3" fill="#ffffff"/><rect x="8" y="2" height="1" width="1" fill="#ffffff"/><rect x="11" y="2" height="1" width="2" fill="#ffffff"/><rect x="14" y="2" height="3" width="2" fill="#ffffff"/><rect x="20" y="2" height="2" width="2" fill="#ffffff"/><rect x="23" y="2" height="1" width="2" fill="#ffffff"/><rect x="28" y="2" height="2" width="1" fill="#ffffff"/><rect x="32" y="2" height="3" width="3" fill="#ffffff"/><rect x="9" y="3" height="1" width="2" fill="#ffffff"/><rect x="18" y="3" height="1" width="2" fill="#ffffff"/><rect x="22" y="3" height="4" width="1" fill="#ffffff"/><rect x="25" y="3" height="3" width="1" fill="#ffffff"/><rect x="27" y="3" height="1" width="1" fill="#ffffff"/><rect x="8" y="4" height="1" width="1" fill="#ffffff"/><rect x="11" y="4" height="2" width="1" fill="#ffffff"/><rect x="16" y="4" height="4" width="1" fill="#ffffff"/><rect x="18" y="4" height="1" width="1" fill="#ffffff"/><rect x="21" y="4" height="2" width="1" fill="#ffffff"/><rect x="23" y="4" height="1" width="2" fill="#ffffff"/><rect x="26" y="4" height="3" width="1" fill="#ffffff"/><rect x="9" y="5" height="1" width="2" fill="#ffffff"/><rect x="17" y="5" height="1" width="1" fill="#ffffff"/><rect x="19" y="5" height="1" width="1" fill="#ffffff"/><rect x="23" y="5" height="1" width="1" fill="#ffffff"/><rect x="28" y="5" height="3" width="1" fill="#ffffff"/><rect x="1" y="6" height="1" width="5" fill="#ffffff"/><rect x="8" y="6" height="2" width="1" fill="#ffffff"/><rect x="10" y="6" height="1" width="1" fill="#ffffff"/><rect x="12" y="6" height="1" width="1" fill="#ffffff"/><rect x="14" y="6" height="2" width="1" fill="#ffffff"/><rect x="18" y="6" height="2" width="1" fill="#ffffff"/><rect x="20" y="6" height="1" width="1" fill="#ffffff"/><rect x="24" y="6" height="3" width="1" fill="#ffffff"/><rect x="31" y="6" height="1" width="5" fill="#ffffff"/><rect x="9" y="7" height="1" width="1" fill="#ffffff"/><rect x="11" y="7" height="1" width="1" fill="#ffffff"/><rect x="13" y="7" height="1" width="1" fill="#ffffff"/><rect x="17" y="7" height="1" width="1" fill="#ffffff"/><rect x="19" y="7" height="1" width="1" fill="#ffffff"/><rect x="21" y="7" height="1" width="1" fill="#ffffff"/><rect x="25" y="7" height="1" width="1" fill="#ffffff"/><rect x="27" y="7" height="1" width="1" fill="#ffffff"/><rect x="5" y="8" height="1" width="2" fill="#ffffff"/><rect x="10" y="8" height="1" width="1" fill="#ffffff"/><rect x="12" y="8" height="5" width="1" fill="#ffffff"/><rect x="22" y="8" height="1" width="2" fill="#ffffff"/><rect x="26" y="8" height="4" width="1" fill="#ffffff"/><rect x="30" y="8" height="1" width="1" fill="#ffffff"/><rect x="32" y="8" height="2" width="1" fill="#ffffff"/><rect x="34" y="8" height="1" width="1" fill="#ffffff"/><rect x="36" y="8" height="1" width="1" fill="#ffffff"/><rect x="1" y="9" height="1" width="1" fill="#ffffff"/><rect x="4" y="9" height="2" width="2" fill="#ffffff"/><rect x="7" y="9" height="1" width="2" fill="#ffffff"/><rect x="11" y="9" height="1" width="1" fill="#ffffff"/><rect x="13" y="9" height="1" width="4" fill="#ffffff"/><rect x="20" y="9" height="1" width="1" fill="#ffffff"/><rect x="25" y="9" height="2" width="1" fill="#ffffff"/><rect x="28" y="9" height="1" width="2" fill="#ffffff"/><rect x="31" y="9" height="2" width="1" fill="#ffffff"/><rect x="33" y="9" height="1" width="1" fill="#ffffff"/><rect x="2" y="10" height="1" width="2" fill="#ffffff"/><rect x="6" y="10" height="1" width="1" fill="#ffffff"/><rect x="10" y="10" height="1" width="1" fill="#ffffff"/><rect x="14" y="10" height="2" width="1" fill="#ffffff"/><rect x="16" y="10" height="1" width="2" fill="#ffffff"/><rect x="21" y="10" height="2" width="3" fill="#ffffff"/><rect x="27" y="10" height="1" width="2" fill="#ffffff"/><rect x="30" y="10" height="3" width="1" fill="#ffffff"/><rect x="35" y="10" height="1" width="2" fill="#ffffff"/><rect x="1" y="11" height="1" width="2" fill="#ffffff"/><rect x="8" y="11" height="1" width="1" fill="#ffffff"/><rect x="11" y="11" height="1" width="1" fill="#ffffff"/><rect x="15" y="11" height="1" width="1" fill="#ffffff"/><rect x="18" y="11" height="1" width="3" fill="#ffffff"/><rect x="33" y="11" height="2" width="1" fill="#ffffff"/><rect x="36" y="11" height="1" width="1" fill="#ffffff"/><rect x="1" y="12" height="1" width="1" fill="#ffffff"/><rect x="4" y="12" height="1" width="3" fill="#ffffff"/><rect x="9" y="12" height="1" width="2" fill="#ffffff"/><rect x="13" y="12" height="1" width="1" fill="#ffffff"/><rect x="16" y="12" height="4" width="1" fill="#ffffff"/><rect x="19" y="12" height="1" width="2" fill="#ffffff"/><rect x="24" y="12" height="1" width="1" fill="#ffffff"/><rect x="28" y="12" height="1" width="1" fill="#ffffff"/><rect x="31" y="12" height="2" width="1" fill="#ffffff"/><rect x="0" y="13" height="1" width="1" fill="#ffffff"/><rect x="3" y="13" height="1" width="2" fill="#ffffff"/><rect x="8" y="13" height="1" width="2" fill="#ffffff"/><rect x="11" y="13" height="2" width="1" fill="#ffffff"/><rect x="15" y="13" height="1" width="1" fill="#ffffff"/><rect x="17" y="13" height="3" width="1" fill="#ffffff"/><rect x="21" y="13" height="1" width="3" fill="#ffffff"/><rect x="27" y="13" height="6" width="1" fill="#ffffff"/><rect x="29" y="13" height="1" width="1" fill="#ffffff"/><rect x="34" y="13" height="1" width="2" fill="#ffffff"/><rect x="5" y="14" height="1" width="4" fill="#ffffff"/><rect x="12" y="14" height="3" width="1" fill="#ffffff"/><rect x="14" y="14" height="1" width="1" fill="#ffffff"/><rect x="18" y="14" height="1" width="3" fill="#ffffff"/><rect x="22" y="14" height="1" width="2" fill="#ffffff"/><rect x="28" y="14" height="1" width="1" fill="#ffffff"/><rect x="30" y="14" height="3" width="1" fill="#ffffff"/><rect x="33" y="14" height="2" width="1" fill="#ffffff"/><rect x="35" y="14" height="1" width="2" fill="#ffffff"/><rect x="1" y="15" height="1" width="1" fill="#ffffff"/><rect x="3" y="15" height="1" width="1" fill="#ffffff"/><rect x="7" y="15" height="3" width="1" fill="#ffffff"/><rect x="10" y="15" height="3" width="1" fill="#ffffff"/><rect x="13" y="15" height="1" width="1" fill="#ffffff"/><rect x="15" y="15" height="2" width="1" fill="#ffffff"/><rect x="18" y="15" height="1" width="1" fill="#ffffff"/><rect x="20" y="15" height="1" width="2" fill="#ffffff"/><rect x="23" y="15" height="2" width="2" fill="#ffffff"/><rect x="29" y="15" height="6" width="1" fill="#ffffff"/><rect x="31" y="15" height="1" width="2" fill="#ffffff"/><rect x="34" y="15" height="4" width="1" fill="#ffffff"/><rect x="4" y="16" height="1" width="3" fill="#ffffff"/><rect x="8" y="16" height="1" width="1" fill="#ffffff"/><rect x="11" y="16" height="1" width="1" fill="#ffffff"/><rect x="14" y="16" height="3" width="1" fill="#ffffff"/><rect x="21" y="16" height="5" width="1" fill="#ffffff"/><rect x="25" y="16" height="1" width="2" fill="#ffffff"/><rect x="32" y="16" height="1" width="1" fill="#ffffff"/><rect x="35" y="16" height="1" width="1" fill="#ffffff"/><rect x="0" y="17" height="1" width="5" fill="#ffffff"/><rect x="16" y="17" height="1" width="1" fill="#ffffff"/><rect x="18" y="17" height="5" width="1" fill="#ffffff"/><rect x="24" y="17" height="1" width="1" fill="#ffffff"/><rect x="31" y="17" height="1" width="1" fill="#ffffff"/><rect x="0" y="18" height="1" width="2" fill="#ffffff"/><rect x="4" y="18" height="1" width="3" fill="#ffffff"/><rect x="8" y="18" height="1" width="1" fill="#ffffff"/><rect x="11" y="18" height="1" width="3" fill="#ffffff"/><rect x="15" y="18" height="3" width="1" fill="#ffffff"/><rect x="17" y="18" height="3" width="1" fill="#ffffff"/><rect x="22" y="18" height="1" width="2" fill="#ffffff"/><rect x="25" y="18" height="1" width="2" fill="#ffffff"/><rect x="28" y="18" height="1" width="1" fill="#ffffff"/><rect x="32" y="18" height="1" width="1" fill="#ffffff"/><rect x="36" y="18" height="2" width="1" fill="#ffffff"/><rect x="2" y="19" height="1" width="1" fill="#ffffff"/><rect x="4" y="19" height="1" width="2" fill="#ffffff"/><rect x="7" y="19" height="2" width="1" fill="#ffffff"/><rect x="9" y="19" height="6" width="1" fill="#ffffff"/><rect x="20" y="19" height="2" width="1" fill="#ffffff"/><rect x="23" y="19" height="1" width="2" fill="#ffffff"/><rect x="30" y="19" height="2" width="2" fill="#ffffff"/><rect x="33" y="19" height="2" width="1" fill="#ffffff"/><rect x="1" y="20" height="3" width="1" fill="#ffffff"/><rect x="3" y="20" height="1" width="1" fill="#ffffff"/><rect x="6" y="20" height="1" width="1" fill="#ffffff"/><rect x="8" y="20" height="1" width="1" fill="#ffffff"/><rect x="10" y="20" height="1" width="2" fill="#ffffff"/><rect x="14" y="20" height="1" width="1" fill="#ffffff"/><rect x="16" y="20" height="2" width="1" fill="#ffffff"/><rect x="19" y="20" height="1" width="1" fill="#ffffff"/><rect x="24" y="20" height="1" width="4" fill="#ffffff"/><rect x="32" y="20" height="2" width="1" fill="#ffffff"/><rect x="34" y="20" height="2" width="1" fill="#ffffff"/><rect x="4" y="21" height="1" width="1" fill="#ffffff"/><rect x="11" y="21" height="3" width="1" fill="#ffffff"/><rect x="13" y="21" height="1" width="1" fill="#ffffff"/><rect x="22" y="21" height="1" width="3" fill="#ffffff"/><rect x="26" y="21" height="1" width="3" fill="#ffffff"/><rect x="31" y="21" height="1" width="1" fill="#ffffff"/><rect x="0" y="22" height="1" width="1" fill="#ffffff"/><rect x="3" y="22" height="1" width="1" fill="#ffffff"/><rect x="5" y="22" height="1" width="2" fill="#ffffff"/><rect x="8" y="22" height="2" width="1" fill="#ffffff"/><rect x="12" y="22" height="1" width="1" fill="#ffffff"/><rect x="14" y="22" height="1" width="1" fill="#ffffff"/><rect x="21" y="22" height="2" width="1" fill="#ffffff"/><rect x="27" y="22" height="2" width="1" fill="#ffffff"/><rect x="29" y="22" height="1" width="2" fill="#ffffff"/><rect x="36" y="22" height="3" width="1" fill="#ffffff"/><rect x="2" y="23" height="6" width="1" fill="#ffffff"/><rect x="7" y="23" height="1" width="1" fill="#ffffff"/><rect x="15" y="23" height="1" width="1" fill="#ffffff"/><rect x="19" y="23" height="4" width="1" fill="#ffffff"/><rect x="23" y="23" height="2" width="1" fill="#ffffff"/><rect x="26" y="23" height="4" width="1" fill="#ffffff"/><rect x="29" y="23" height="1" width="1" fill="#ffffff"/><rect x="31" y="23" height="6" width="1" fill="#ffffff"/><rect x="33" y="23" height="2" width="1" fill="#ffffff"/><rect x="35" y="23" height="1" width="1" fill="#ffffff"/><rect x="1" y="24" height="1" width="1" fill="#ffffff"/><rect x="6" y="24" height="1" width="1" fill="#ffffff"/><rect x="10" y="24" height="2" width="1" fill="#ffffff"/><rect x="12" y="24" height="1" width="2" fill="#ffffff"/><rect x="17" y="24" height="1" width="2" fill="#ffffff"/><rect x="22" y="24" height="2" width="1" fill="#ffffff"/><rect x="25" y="24" height="1" width="1" fill="#ffffff"/><rect x="28" y="24" height="3" width="1" fill="#ffffff"/><rect x="30" y="24" height="1" width="1" fill="#ffffff"/><rect x="0" y="25" height="4" width="1" fill="#ffffff"/><rect x="3" y="25" height="1" width="1" fill="#ffffff"/><rect x="5" y="25" height="4" width="1" fill="#ffffff"/><rect x="7" y="25" height="1" width="2" fill="#ffffff"/><rect x="11" y="25" height="1" width="1" fill="#ffffff"/><rect x="14" y="25" height="2" width="4" fill="#ffffff"/><rect x="20" y="25" height="1" width="2" fill="#ffffff"/><rect x="24" y="25" height="1" width="1" fill="#ffffff"/><rect x="27" y="25" height="2" width="1" fill="#ffffff"/><rect x="34" y="25" height="1" width="1" fill="#ffffff"/><rect x="6" y="26" height="1" width="1" fill="#ffffff"/><rect x="25" y="26" height="1" width="1" fill="#ffffff"/><rect x="30" y="26" height="1" width="1" fill="#ffffff"/><rect x="33" y="26" height="2" width="1" fill="#ffffff"/><rect x="35" y="26" height="1" width="2" fill="#ffffff"/><rect x="3" y="27" height="1" width="2" fill="#ffffff"/><rect x="8" y="27" height="1" width="1" fill="#ffffff"/><rect x="10" y="27" height="1" width="2" fill="#ffffff"/><rect x="13" y="27" height="2" width="3" fill="#ffffff"/><rect x="18" y="27" height="3" width="1" fill="#ffffff"/><rect x="20" y="27" height="1" width="1" fill="#ffffff"/><rect x="24" y="27" height="2" width="1" fill="#ffffff"/><rect x="29" y="27" height="2" width="1" fill="#ffffff"/><rect x="32" y="27" height="6" width="1" fill="#ffffff"/><rect x="34" y="27" height="2" width="2" fill="#ffffff"/><rect x="3" y="28" height="1" width="1" fill="#ffffff"/><rect x="6" y="28" height="1" width="1" fill="#ffffff"/><rect x="11" y="28" height="3" width="2" fill="#ffffff"/><rect x="17" y="28" height="4" width="1" fill="#ffffff"/><rect x="19" y="28" height="9" width="1" fill="#ffffff"/><rect x="21" y="28" height="1" width="1" fill="#ffffff"/><rect x="25" y="28" height="1" width="4" fill="#ffffff"/><rect x="30" y="28" height="1" width="1" fill="#ffffff"/><rect x="8" y="29" height="1" width="1" fill="#ffffff"/><rect x="10" y="29" height="4" width="1" fill="#ffffff"/><rect x="13" y="29" height="2" width="1" fill="#ffffff"/><rect x="20" y="29" height="2" width="1" fill="#ffffff"/><rect x="23" y="29" height="3" width="1" fill="#ffffff"/><rect x="25" y="29" height="2" width="1" fill="#ffffff"/><rect x="28" y="29" height="4" width="1" fill="#ffffff"/><rect x="33" y="29" height="3" width="1" fill="#ffffff"/><rect x="0" y="30" height="1" width="7" fill="#ffffff"/><rect x="15" y="30" height="2" width="2" fill="#ffffff"/><rect x="22" y="30" height="1" width="1" fill="#ffffff"/><rect x="26" y="30" height="2" width="1" fill="#ffffff"/><rect x="30" y="30" height="1" width="1" fill="#ffffff"/><rect x="34" y="30" height="1" width="3" fill="#ffffff"/><rect x="0" y="31" height="6" width="1" fill="#ffffff"/><rect x="6" y="31" height="6" width="1" fill="#ffffff"/><rect x="8" y="31" height="1" width="2" fill="#ffffff"/><rect x="12" y="31" height="1" width="1" fill="#ffffff"/><rect x="14" y="31" height="2" width="1" fill="#ffffff"/><rect x="21" y="31" height="1" width="1" fill="#ffffff"/><rect x="27" y="31" height="2" width="1" fill="#ffffff"/><rect x="35" y="31" height="2" width="1" fill="#ffffff"/><rect x="2" y="32" height="3" width="3" fill="#ffffff"/><rect x="9" y="32" height="2" width="1" fill="#ffffff"/><rect x="13" y="32" height="5" width="1" fill="#ffffff"/><rect x="20" y="32" height="3" width="1" fill="#ffffff"/><rect x="22" y="32" height="1" width="1" fill="#ffffff"/><rect x="24" y="32" height="1" width="2" fill="#ffffff"/><rect x="29" y="32" height="1" width="3" fill="#ffffff"/><rect x="34" y="32" height="1" width="1" fill="#ffffff"/><rect x="12" y="33" height="4" width="1" fill="#ffffff"/><rect x="16" y="33" height="1" width="2" fill="#ffffff"/><rect x="26" y="33" height="1" width="1" fill="#ffffff"/><rect x="30" y="33" height="1" width="1" fill="#ffffff"/><rect x="33" y="33" height="1" width="1" fill="#ffffff"/><rect x="10" y="34" height="2" width="1" fill="#ffffff"/><rect x="14" y="34" height="1" width="2" fill="#ffffff"/><rect x="17" y="34" height="2" width="2" fill="#ffffff"/><rect x="23" y="34" height="1" width="2" fill="#ffffff"/><rect x="28" y="34" height="1" width="2" fill="#ffffff"/><rect x="31" y="34" height="1" width="1" fill="#ffffff"/><rect x="34" y="34" height="1" width="1" fill="#ffffff"/><rect x="36" y="34" height="3" width="1" fill="#ffffff"/><rect x="21" y="35" height="2" width="1" fill="#ffffff"/><rect x="23" y="35" height="1" width="1" fill="#ffffff"/><rect x="26" y="35" height="1" width="3" fill="#ffffff"/><rect x="30" y="35" height="2" width="1" fill="#ffffff"/><rect x="32" y="35" height="1" width="2" fill="#ffffff"/><rect x="1" y="36" height="1" width="5" fill="#ffffff"/><rect x="9" y="36" height="1" width="1" fill="#ffffff"/><rect x="11" y="36" height="1" width="1" fill="#ffffff"/><rect x="16" y="36" height="1" width="1" fill="#ffffff"/><rect x="18" y="36" height="1" width="1" fill="#ffffff"/><rect x="20" y="36" height="1" width="1" fill="#ffffff"/><rect x="24" y="36" height="1" width="1" fill="#ffffff"/><rect x="28" y="36" height="1" width="2" fill="#ffffff"/></svg>